<?xml version="1.0" encoding="iso-8859-1"?>
<!-- Generator: Adobe Illustrator 17.1.0, SVG Export Plug-In . SVG Version: 6.00 Build 0)  -->
<!DOCTYPE svg PUBLIC "-//W3C//DTD SVG 1.1//EN" "http://www.w3.org/Graphics/SVG/1.1/DTD/svg11.dtd">
<svg version="1.1" id="Capa_1" xmlns="http://www.w3.org/2000/svg" xmlns:xlink="http://www.w3.org/1999/xlink" x="0px" y="0px"
	 viewBox="0 0 466 466" style="enable-background:new 0 0 466 466;" xml:space="preserve">
<g>
	<path d="M401.11,162.022c-23.075-24.075-54.999-37.883-87.588-37.883c-26.078,0-51.273,8.7-72.522,24.78V92.44
		c18.465,10.921,39.831,16.843,61.453,16.844c0.002,0,0.003,0,0.005,0c10.874,0,21.762-1.472,32.361-4.374
		c36.859-10.092,66.136-35.969,80.325-70.996c0.014-0.035,0.019-0.071,0.033-0.106c0.145-0.372,0.268-0.752,0.356-1.144
		c0.006-0.028,0.009-0.055,0.015-0.083c0.08-0.374,0.131-0.755,0.157-1.141c0.003-0.045,0.009-0.091,0.011-0.136
		c0.019-0.378,0.007-0.76-0.03-1.144c-0.007-0.076-0.017-0.15-0.026-0.226c-0.047-0.376-0.111-0.753-0.214-1.129
		c-0.001-0.004-0.002-0.008-0.003-0.012c-0.103-0.377-0.24-0.734-0.392-1.082c-0.03-0.069-0.06-0.138-0.092-0.206
		c-0.164-0.35-0.349-0.685-0.558-1.002c-0.024-0.037-0.052-0.071-0.077-0.108c-0.219-0.32-0.458-0.623-0.718-0.905
		c-0.019-0.021-0.036-0.043-0.055-0.063c-0.275-0.292-0.574-0.556-0.888-0.802c-0.03-0.024-0.054-0.053-0.084-0.076
		c-0.071-0.054-0.145-0.104-0.215-0.157c-0.013-0.009-0.025-0.018-0.037-0.027C391.606,8.654,365.814,0,339.658,0
		c-10.877,0-21.767,1.472-32.366,4.374C280.033,11.837,256.93,27.941,241,49.987V26.811c0-4.418-3.582-8-8-8s-8,3.582-8,8v122.108
		c-21.249-16.081-46.444-24.78-72.522-24.78c-32.592,0-64.518,13.807-87.59,37.88c-25.43,26.532-38.871,62.839-38.871,104.998
		c0,60.026,22.545,111.206,65.197,148.006C128.761,447.419,180.44,466,233,466s104.239-18.581,141.787-50.977
		c42.652-36.801,65.197-87.98,65.197-148.006C439.983,224.862,426.542,188.556,401.11,162.022z M330.593,89.479
		c-9.223,2.525-18.688,3.806-28.135,3.806c-0.001,0-0.003,0-0.005,0c-16.933-0.001-33.683-4.182-48.557-11.959l138.616-37.953
		C378.733,65.845,356.891,82.278,330.593,89.479z M311.517,19.806C320.74,17.281,330.208,16,339.658,16
		c16.933,0,33.683,4.181,48.557,11.959L249.598,65.913C263.378,43.438,285.22,27.006,311.517,19.806z M233,450
		c-94.907,0-190.983-62.854-190.983-182.983c0-82.41,56.912-126.877,110.461-126.877c27.645,0,54.231,11.362,74.862,31.991
		c0.186,0.186,0.381,0.362,0.584,0.529c0.043,0.036,0.09,0.066,0.135,0.101c0.161,0.127,0.324,0.252,0.495,0.366
		c0.042,0.028,0.087,0.052,0.13,0.079c0.177,0.114,0.356,0.225,0.542,0.324c0.032,0.017,0.065,0.03,0.097,0.047
		c0.2,0.104,0.402,0.202,0.611,0.289c0.021,0.009,0.044,0.015,0.065,0.024c0.219,0.089,0.442,0.171,0.67,0.24
		c0.024,0.007,0.048,0.011,0.072,0.019c0.225,0.066,0.452,0.125,0.684,0.172c0.064,0.013,0.129,0.018,0.193,0.029
		c0.193,0.034,0.385,0.067,0.583,0.087c0.264,0.027,0.531,0.04,0.799,0.04s0.535-0.014,0.799-0.04
		c0.197-0.02,0.39-0.053,0.583-0.087c0.064-0.011,0.129-0.017,0.193-0.029c0.232-0.046,0.46-0.106,0.684-0.172
		c0.024-0.007,0.048-0.011,0.072-0.019c0.228-0.069,0.451-0.151,0.67-0.24c0.021-0.009,0.044-0.015,0.065-0.024
		c0.209-0.087,0.412-0.185,0.611-0.289c0.032-0.017,0.065-0.03,0.097-0.047c0.186-0.1,0.365-0.21,0.542-0.324
		c0.043-0.027,0.088-0.051,0.13-0.079c0.171-0.115,0.334-0.24,0.495-0.366c0.044-0.035,0.091-0.065,0.135-0.101
		c0.203-0.167,0.398-0.343,0.584-0.529c20.631-20.629,47.218-31.991,74.862-31.991c53.549,0,110.461,44.468,110.461,126.877
		C423.983,387.146,327.907,450,233,450z"/>
	<path d="M152.477,164.139c-0.001,0-0.002,0-0.004,0c-22.063,0-42.912,9.076-58.708,25.556
		c-18.153,18.941-27.749,45.679-27.749,77.321c0,4.418,3.582,8,8,8s8-3.582,8-8c0-27.437,8.057-50.346,23.3-66.25
		c12.75-13.303,29.498-20.628,47.159-20.627h0c4.418,0,8-3.582,8-8C160.476,167.721,156.895,164.139,152.477,164.139z"/>
</g>
<g>
</g>
<g>
</g>
<g>
</g>
<g>
</g>
<g>
</g>
<g>
</g>
<g>
</g>
<g>
</g>
<g>
</g>
<g>
</g>
<g>
</g>
<g>
</g>
<g>
</g>
<g>
</g>
<g>
</g>
</svg>
