<svg height="512pt" viewBox="0 0 512 512" width="512pt" xmlns="http://www.w3.org/2000/svg"><path fill="#3c3d43" d="m436.769531 74.617188c-48.335937-48.128907-112.511719-74.617188-180.765625-74.617188h-.363281c-34.804687.046875-68.578125 7.011719-100.390625 20.695312-30.675781 13.199219-58.167969 32.027344-81.714844 55.96875-48.441406 49.25-74.546875 114.199219-73.503906 182.878907.628906 41.699219 11.605469 82.980469 31.730469 119.371093.378906.683594.46875 1.449219.25 2.105469l-29.445313 88.179688c-3.78125 11.328125-1.058594 23.78125 7.109375 32.5 6.238281 6.664062 14.859375 10.300781 23.738281 10.300781 2.761719 0 5.546876-.351562 8.289063-1.070312l99.527344-26.148438c.585937-.152344 1.21875-.085938 1.78125.191406 35.382812 17.410156 73.398437 26.238282 112.984375 26.238282 68.328125 0 132.65625-26.738282 181.140625-75.289063 48.375-48.445313 74.960937-112.617187 74.859375-180.691406-.09375-68.261719-26.8125-132.40625-75.226563-180.613281zm-62.152343 117.921874-130.957032 130.960938c-7.660156 7.664062-17.726562 11.496094-27.792968 11.496094-10.066407 0-20.132813-3.832032-27.796876-11.496094l-50.6875-50.691406c-5.859374-5.855469-5.859374-15.355469 0-21.210938 5.855469-5.859375 15.355469-5.863281 21.210938 0l50.6875 50.6875c3.628906 3.628906 9.535156 3.628906 13.167969 0l130.953125-130.960937c5.859375-5.855469 15.355468-5.855469 21.214844 0 5.859374 5.859375 5.859374 15.359375 0 21.214843zm0 0"/></svg>