<?xml version="1.0"?>
<svg xmlns="http://www.w3.org/2000/svg" id="Layer_1" data-name="Layer 1" viewBox="0 0 64 64" width="512" height="512"><path d="M14,20H4a4,4,0,0,0-4,4V34a4,4,0,0,0,4,4H14a4,4,0,0,0,4-4V24A4,4,0,0,0,14,20ZM4,34V24H14V34Z"/><path d="M41,34V24a4,4,0,0,0-4-4H27a4,4,0,0,0-4,4V34a4,4,0,0,0,4,4H37A4,4,0,0,0,41,34ZM27,24H37V34H27Z"/><path d="M60,20H50a4,4,0,0,0-4,4V34a4,4,0,0,0,4,4H60a4,4,0,0,0,4-4V24A4,4,0,0,0,60,20ZM50,34V24H60V34Z"/><path d="M30.33,10.43a2.1,2.1,0,0,0-3.12.68,2,2,0,0,0,.9,2.68l4,2a2,2,0,0,0,2.49-.59l3-4a2,2,0,0,0-.4-2.8,2.09,2.09,0,0,0-3.08.77A14,14,0,0,0,7,14a2,2,0,0,0,4,0,10,10,0,0,1,19.33-3.57Z"/><path d="M57.6,42.8a2,2,0,0,0-2.49-.59l-4,2a2,2,0,0,0-.9,2.68,2.1,2.1,0,0,0,3.12.68A10,10,0,0,1,34,44a2,2,0,0,0-4,0,14,14,0,0,0,27.12,4.83,2.09,2.09,0,0,0,3.08.77,2,2,0,0,0,.4-2.8Z"/><path d="M52.59,15.41a2,2,0,0,0,2.61.19l8-6a2,2,0,1,0-2.4-3.2l-6.61,5L52.41,9.59a2,2,0,0,0-2.82,2.82Z"/><path d="M14.2,45.4l-4-3a2,2,0,0,0-2.4,0l-4,3a2,2,0,0,0-.4,2.8C4.37,49.52,6,49,7,48v6a2,2,0,0,0,4,0V48c1,1,2.63,1.52,3.6.2A2,2,0,0,0,14.2,45.4Z"/><circle cx="9" cy="62" r="2"/></svg>
