<svg xmlns="http://www.w3.org/2000/svg" width="364" height="297" viewBox="0 0 364 297"><defs><clipPath id="zfjxa"><path fill="#fff" d="M359.392 235.556l-.47.876-88.313-46.548.468-.877z"/></clipPath><clipPath id="zfjxb"><path fill="#fff" d="M182 292.998h-1v-44.995h1z"/></clipPath><clipPath id="zfjxc"><path fill="#fff" d="M4.588 235.597l.467.87 87.93-46.187-.467-.869z"/></clipPath><clipPath id="zfjxd"><path fill="#fff" d="M359.392 60.486l-.47-.883-88.313 46.91.468.884z"/></clipPath><clipPath id="zfjxe"><path fill="#fff" d="M182 49.997h-1V5.002h1z"/></clipPath><clipPath id="zfjxf"><path fill="#fff" d="M4.588 60.443l.467-.876 87.93 46.547-.467.876z"/></clipPath></defs><g><g><path fill="none" stroke="#d03b3e" stroke-miterlimit="20" stroke-width="4" d="M359.392 235.556v0l-.47.876v0l-88.313-46.548v0l.468-.877v0z" clip-path="url(&quot;#zfjxa&quot;)"/></g><g><path fill="#d03b3e" d="M359.5 232.069c2.485 0 4.5 2 4.5 4.466s-2.015 4.464-4.5 4.464-4.5-1.998-4.5-4.464 2.015-4.466 4.5-4.466z"/></g><g><path fill="none" stroke="#d03b3e" stroke-miterlimit="20" stroke-width="4" d="M182 292.998v0h-1v0-44.995 0h1v0z" clip-path="url(&quot;#zfjxb&quot;)"/></g><g><path fill="#d03b3e" d="M181.5 287.997a4.5 4.5 0 1 1-.002 9.002 4.5 4.5 0 0 1 .002-9.002z"/></g><g><path fill="none" stroke="#d03b3e" stroke-miterlimit="20" stroke-width="4" d="M4.588 235.597v0l.467.87v0l87.93-46.187v0l-.467-.869v0z" clip-path="url(&quot;#zfjxc&quot;)"/></g><g><path fill="#d03b3e" d="M4.484 232.131c2.477 0 4.485 1.985 4.485 4.434 0 2.45-2.008 4.434-4.485 4.434C2.008 241 0 239.014 0 236.565s2.008-4.434 4.484-4.434z"/></g><g><path fill="none" stroke="#d03b3e" stroke-miterlimit="20" stroke-width="4" d="M359.392 60.486v0l-.47-.883v0l-88.313 46.91v0l.468.884v0z" clip-path="url(&quot;#zfjxd&quot;)"/></g><g><path fill="#d03b3e" d="M359.5 55a4.5 4.5 0 1 1 0 9 4.5 4.5 0 0 1 0-9z"/></g><g><path fill="none" stroke="#d03b3e" stroke-miterlimit="20" stroke-width="4" d="M182 49.997v0h-1v0V5.002v0h1v0z" clip-path="url(&quot;#zfjxe&quot;)"/></g><g><path fill="#d03b3e" d="M181.5-.002a4.5 4.5 0 1 1 0 9 4.5 4.5 0 0 1 0-9z"/></g><g><path fill="none" stroke="#d03b3e" stroke-miterlimit="20" stroke-width="4" d="M4.588 60.443v0l.467-.876v0l87.93 46.547v0l-.467.876v0z" clip-path="url(&quot;#zfjxf&quot;)"/></g><g><path fill="#d03b3e" d="M4.48 55a4.472 4.472 0 0 1 4.48 4.464 4.473 4.473 0 0 1-4.48 4.466c-2.474 0-4.48-2-4.48-4.466A4.472 4.472 0 0 1 4.48 55z"/></g></g></svg>