<svg xmlns="http://www.w3.org/2000/svg" width="501" height="297" viewBox="0 0 501 297"><defs><clipPath id="7p64a"><path fill="#fff" d="M424 213v1H324v-1z"/></clipPath><clipPath id="7p64b"><path fill="#fff" d="M251 293h-1v-44.996h1z"/></clipPath><clipPath id="7p64c"><path fill="#fff" d="M177 213v1H77v-1z"/></clipPath><clipPath id="7p64d"><path fill="#fff" d="M423.996 82.999v1H324v-1z"/></clipPath><clipPath id="7p64e"><path fill="#fff" d="M251 49.999h-1V5.003h1z"/></clipPath><clipPath id="7p64f"><path fill="#fff" d="M177 82.999v1H19.826v-1z"/></clipPath></defs><g><g><path fill="none" stroke="#d03b3e" stroke-miterlimit="20" stroke-width="4" d="M424 213v1H324v0-1 0z" clip-path="url(&quot;#7p64a&quot;)"/></g><g><path fill="#d03b3e" d="M423.512 213.005l-.514.866 73.49 42.123.514-.866z"/></g><g><path fill="#d03b3e" d="M496.5 250.999a4.5 4.5 0 1 1 0 9 4.5 4.5 0 0 1 0-9z"/></g><g><path fill="none" stroke="#d03b3e" stroke-miterlimit="20" stroke-width="4" d="M251 293v0h-1v0-44.996 0h1v0z" clip-path="url(&quot;#7p64b&quot;)"/></g><g><path fill="#d03b3e" d="M250.5 287.999a4.5 4.5 0 1 1-.002 9.001A4.5 4.5 0 0 1 250.5 288z"/></g><g><path fill="none" stroke="#d03b3e" stroke-miterlimit="20" stroke-width="4" d="M177 213v1H77v0-1 0z" clip-path="url(&quot;#7p64c&quot;)"/></g><g><path fill="#d03b3e" d="M77.488 213.005l.514.866-73.49 42.123-.514-.866z"/></g><g><path fill="#d03b3e" d="M4.5 250.999a4.5 4.5 0 1 1 0 9 4.5 4.5 0 0 1 0-9z"/></g><g><path fill="none" stroke="#d03b3e" stroke-miterlimit="20" stroke-width="4" d="M423.996 82.999v1H324v0-1 0z" clip-path="url(&quot;#7p64d&quot;)"/></g><g><path fill="#d03b3e" d="M423.512 83.994l-.514-.867 73.49-42.123.514.868z"/></g><g><path fill="#d03b3e" d="M496.5 36.999a4.5 4.5 0 1 1 0 9 4.5 4.5 0 0 1 0-9z"/></g><g><path fill="none" stroke="#d03b3e" stroke-miterlimit="20" stroke-width="4" d="M251 49.999v0h-1v0V5.003v0h1v0z" clip-path="url(&quot;#7p64e&quot;)"/></g><g><path fill="#d03b3e" d="M250.5 0a4.5 4.5 0 1 1 0 9 4.5 4.5 0 0 1 0-9z"/></g><g><path fill="none" stroke="#d03b3e" stroke-miterlimit="20" stroke-width="4" d="M177 82.999v1H19.826v0-1 0z" clip-path="url(&quot;#7p64f&quot;)"/></g><g><path fill="#d03b3e" d="M19.5 79a4.5 4.5 0 1 1 0 9 4.5 4.5 0 0 1 0-9z"/></g></g></svg>