?xml version="1.0" encoding="UTF-8"?>
<!DOCTYPE svg PUBLIC "-//W3C//DTD SVG 1.1//EN" "http://www.w3.org/Graphics/SVG/1.1/DTD/svg11.dtd">
<!-- Creator: CorelDRAW X8 -->
<svg xmlns="http://www.w3.org/2000/svg" xml:space="preserve" width="241.913mm" height="114.736mm" version="1.1" style="shape-rendering:geometricPrecision; text-rendering:geometricPrecision; image-rendering:optimizeQuality; fill-rule:evenodd; clip-rule:evenodd"
viewBox="0 0 24191 11474"
 xmlns:xlink="http://www.w3.org/1999/xlink">
 <defs>
  <style type="text/css">
   <![CDATA[
    .str0 {stroke:#C4C4C4;stroke-width:20;stroke-linecap:round}
    .fil0 {fill:none}
    .fil5 {fill:#3C3D43}
    .fil3 {fill:#4661BB}
    .fil4 {fill:#D03B3E}
    .fil6 {fill:#3C3D43;fill-rule:nonzero}
    .fil2 {fill:#4661BB;fill-rule:nonzero}
    .fil1 {fill:#D03B3E;fill-rule:nonzero}
   ]]>
  </style>
 </defs>
 <g id="Слой_x0020_1">
  <metadata id="CorelCorpID_0Corel-Layer"/>
  <line class="fil0 str0" x1="12093" y1="11212" x2="12093" y2= "661" />
  <line class="fil0 str0" x1="1719" y1="5522" x2="22393" y2= "5522" />
  <path class="fil1" d="M354 6565c314,0 423,47 459,166l44 0c-23,-174 -125,-299 -481,-299l-246 0c-56,0 -70,-17 -70,-61l0 -149c0,-46 10,-66 71,-66l565 0c91,0 118,13 118,108l32 0 0 -356 -32 0c0,96 -25,108 -118,108l-546 0c-93,0 -118,-12 -118,-108l-32 0 0 765 32 0c0,-95 25,-108 118,-108l204 0zm492 -1054l-32 0c0,95 -27,108 -118,108l-546 0c-92,0 -118,-13 -118,-108l-32 0 0 356 32 0c0,-96 25,-108 118,-108l546 0c93,0 118,12 118,108l32 0 0 -356zm-225 -730c-133,0 -199,71 -223,195l-3 0c-29,-91 -89,-155 -192,-155 -169,0 -203,159 -203,296l0 356 32 0c-2,-95 26,-108 118,-108l546 0c91,0 119,13 118,108l32 0 0 -356c0,-156 -28,-336 -225,-336zm-409 185c122,0 158,67 158,180l0 79 -220 0c-92,0 -92,-24 -92,-108 0,-105 50,-151 154,-151zm382 -41c132,0 193,60 193,192 0,88 -1,108 -91,108l-268 0 0 -79c0,-118 24,-221 166,-221zm252 -591l-32 0c0,95 -27,108 -118,108l-546 0c-92,0 -118,-13 -118,-108l-32 0 0 355 32 0c0,-95 25,-108 118,-108l546 0c93,0 118,13 118,108l32 0 0 -355z"/>
  <path class="fil2" d="M23495 4396c-91,0 -118,-13 -118,-108l-32 0 0 355 32 0c0,-95 26,-107 118,-107l546 0c93,0 119,12 119,107l31 0 0 -833 -31 0c0,96 -26,108 -119,108l-546 0c-92,0 -118,-12 -118,-108l-32 0 0 356 32 0c0,-95 26,-108 118,-108l567 0c56,0 70,17 70,61l0 211c0,46 -11,66 -72,66l-565 0zm464 937c179,0 232,-136 232,-292l0 -359 -31 0c1,95 -28,108 -119,108l-546 0c-90,0 -119,-13 -118,-108l-32 0 0 355 32 0c-1,-95 28,-108 118,-108l225 0c0,179 -4,404 239,404l0 0zm0 -145c-155,0 -180,-80 -180,-214l0 -45 262 0c69,0 92,4 92,78 0,127 -39,181 -174,181l0 0zm-614 944l32 0c0,-95 31,-122 117,-154l697 -259 0 -104 -680 -255c-88,-33 -134,-59 -134,-159l-32 0 0 310 32 0c0,-38 -1,-95 51,-95 17,0 33,5 48,11l130 48 0 329 -137 51c-16,5 -31,10 -47,10 -46,0 -45,-63 -45,-95l-32 0 0 362zm319 -349l0 -286 384 145 -384 141zm-94 1040c134,0 200,-71 224,-196l2 0c30,92 89,155 192,155 169,0 203,-159 203,-296l0 -355 -31 0c1,95 -27,108 -119,108l-546 0c-91,0 -119,-13 -118,-108l-32 0 0 355c0,156 28,337 225,337zm409 -186c-122,0 -157,-67 -157,-180l0 -79 219 0c92,0 92,24 92,108 0,106 -50,151 -154,151zm-382 41c-132,0 -193,-60 -193,-192 0,-87 1,-108 91,-108l268 0 0 79c0,118 -24,221 -166,221zm-252 592l32 0c0,-95 27,-108 118,-108l546 0c92,0 119,13 119,108l31 0 0 -356 -31 0c0,95 -26,108 -119,108l-546 0c-92,0 -118,-13 -118,-108l-32 0 0 356z"/>
  <path class="fil2" d="M22046 230l0 76 346 0 0 -306 -346 0 0 77 274 0 0 153 -274 0zm0 217l109 0 0 67c0,109 59,146 118,146 56,0 119,-29 119,-146l0 -144 -346 0 0 77zm274 69c0,48 -20,65 -47,65 -29,0 -47,-20 -47,-68l0 -66 94 0 0 69zm-274 115l0 79 64 28 0 145 -64 28 0 80 346 -151 0 -57 -346 -152zm232 179l-103 45 0 -90 103 45zm-232 211l0 151c0,78 30,135 103,135 43,0 67,-17 80,-45 17,19 40,33 74,33 52,0 89,-29 89,-119l0 -155 -346 0zm142 147c0,44 -11,59 -35,59 -25,0 -35,-17 -35,-63l0 -66 70 0 0 70zm132 -5c0,42 -11,53 -34,53 -18,0 -29,-16 -29,-46l0 -72 63 0 0 65zm-101 176c-103,0 -179,79 -179,178 0,99 77,178 179,178 103,0 179,-79 179,-178 0,-100 -79,-178 -179,-178zm0 79c64,0 104,47 104,99 0,51 -40,98 -104,98 -64,0 -105,-43 -105,-98 0,-52 41,-99 105,-99zm-173 324l0 262 -58 0 0 71 130 0 0 -40 274 0 0 -77 -274 0 0 -140 274 0 0 -76 -346 0zm0 370l0 269 72 0 0 -193 69 0 0 176 69 0 0 -176 64 0 0 188 72 0 0 -264 -346 0zm0 551l0 76 346 0 0 -76 -136 0 0 -154 136 0 0 -77 -346 0 0 77 138 0 0 154 -138 0zm274 108l0 111 -274 0 0 76 274 0 0 111 72 0 0 -298 -72 0zm-274 407l109 0 0 67c0,109 59,146 118,146 56,0 119,-29 119,-146l0 -143 -346 0 0 76zm274 69c0,48 -20,65 -47,65 -29,0 -47,-20 -47,-68l0 -66 94 0 0 69zm-274 252l211 168 -211 0 0 77 346 0 0 -64 -212 -168 212 0 0 -76 -346 0 0 63zm-6 444c0,84 42,141 114,141 28,0 61,-6 77,-47 15,27 37,36 66,36 63,0 101,-46 101,-133 0,-75 -28,-121 -70,-152l-40 59c26,23 38,48 38,88 0,26 -7,61 -36,61 -19,0 -32,-23 -32,-64l0 -51 -72 0 0 54c0,48 -11,72 -37,72 -22,0 -37,-15 -37,-66 0,-48 15,-81 47,-105l-41 -60c-57,38 -78,95 -78,167zm6 188l0 77 209 0 -139 93 0 20 137 90 -207 0 0 76 346 0 0 -69 -166 -105 166 -111 0 -71 -346 0z"/>
  <path class="fil1" d="M2040 11079l0 -77 -346 0 0 260 39 0c220,3 242,19 236,71l71 0c1,-6 1,-13 1,-19 0,-70 -19,-114 -233,-125l-40 -2 0 -108 272 0zm0 -143l0 -77 -346 0 0 77 346 0zm0 -143l0 -151c0,-78 -30,-135 -103,-135 -43,0 -67,17 -80,45 -17,-19 -40,-34 -75,-34 -51,0 -88,30 -88,120l0 155 346 0zm-142 -147c0,-44 10,-59 35,-59 25,0 35,17 35,63l0 66 -70 0 0 -70zm-132 5c0,-42 11,-53 34,-53 18,0 29,16 29,46l0 72 -63 0 0 -65zm101 -176c103,0 179,-79 179,-178 0,-99 -77,-178 -179,-178 -103,0 -179,79 -179,178 0,100 79,178 179,178zm0 -79c-64,0 -105,-47 -105,-99 0,-51 41,-99 105,-99 64,0 105,44 105,99 0,52 -41,99 -105,99zm173 -401l-109 0 0 -66c0,-109 -60,-147 -118,-147 -57,0 -119,29 -119,147l0 143 346 0 0 -77zm-274 -68c0,-49 19,-65 47,-65 29,0 47,20 47,68l0 65 -94 0 0 -68zm274 -116l0 -79 -64 -28 0 -145 64 -28 0 -80 -346 152 0 57 346 151zm-232 -179l103 -44 0 89 -103 -45zm290 -190l0 -71 -58 0 0 -222 58 0 0 -72 -130 0 0 40 -274 0 0 252 42 0c137,0 205,23 232,36l0 37 130 0zm-332 -146l0 -102 202 0 0 132c-34,-15 -101,-28 -183,-30l-19 0zm274 -318l-211 -169 211 0 0 -76 -346 0 0 63 212 168 -212 0 0 76 346 0 0 -62zm0 -310l0 -76 -116 0 -25 -25 141 -117 0 -101 -193 160 -153 -150 0 100 135 133 -135 0 0 76 346 0zm0 -303l0 -79 -64 -28 0 -145 64 -28 0 -80 -346 151 0 57 346 152zm-232 -180l103 -44 0 90 -103 -46zm232 -436l0 -77 -346 0 0 260 39 0c220,3 242,18 236,71l71 0c1,-6 1,-14 1,-20 0,-69 -19,-114 -233,-124l-40 -2 0 -108 272 0zm0 -143l0 -77 -346 0 0 77 346 0zm6 -278c0,-84 -43,-142 -114,-142 -28,0 -61,6 -77,47 -16,-26 -37,-36 -66,-36 -63,0 -101,47 -101,134 0,75 27,120 70,151l40 -59c-26,-23 -38,-48 -38,-88 0,-26 7,-61 36,-61 19,0 32,23 32,64l0 51 72 0 0 -54c0,-47 10,-72 37,-72 21,0 37,16 37,67 0,47 -15,80 -47,104l41 60c56,-38 78,-95 78,-166zm-6 -189l0 -77 -209 0 139 -93 0 -20 -138 -90 208 0 0 -76 -346 0 0 69 166 105 -166 111 0 71 346 0z"/>
  <path class="fil2" d="M22046 6672l0 77 346 0 0 -307 -346 0 0 77 274 0 0 153 -274 0zm0 217l109 0 0 67c0,109 59,147 118,147 56,0 119,-29 119,-147l0 -143 -346 0 0 76zm274 69c0,48 -20,65 -47,65 -29,0 -47,-20 -47,-68l0 -66 94 0 0 69zm-274 116l0 79 64 28 0 144 -64 29 0 80 346 -152 0 -57 -346 -151zm232 179l-103 44 0 -90 103 46zm-232 211l0 150c0,78 30,135 103,135 43,0 67,-17 80,-45 17,20 40,34 74,34 52,0 89,-29 89,-120l0 -154 -346 0zm142 146c0,44 -11,59 -35,59 -25,0 -35,-17 -35,-63l0 -66 70 0 0 70zm132 -4c0,41 -11,52 -34,52 -18,0 -29,-15 -29,-46l0 -72 63 0 0 66zm-101 175c-103,0 -179,80 -179,179 0,98 77,177 179,177 103,0 179,-79 179,-177 0,-101 -79,-179 -179,-179zm0 80c64,0 104,46 104,99 0,50 -40,98 -104,98 -64,0 -105,-44 -105,-98 0,-53 41,-99 105,-99zm-173 400l109 0 0 67c0,109 59,146 118,146 56,0 119,-29 119,-146l0 -144 -346 0 0 77zm274 69c0,48 -20,65 -47,65 -29,0 -47,-21 -47,-68l0 -66 94 0 0 69zm-274 115l0 79 64 28 0 145 -64 28 0 80 346 -151 0 -57 -346 -152zm232 179l-103 45 0 -90 103 45zm-290 190l0 72 58 0 0 221 -58 0 0 72 130 0 0 -40 274 0 0 -251 -42 0c-138,0 -205,-24 -232,-36l0 -38 -130 0zm332 147l0 101 -202 0 0 -131c34,14 100,27 183,29l19 1zm-274 318l211 168 -211 0 0 77 346 0 0 -64 -212 -167 212 0 0 -77 -346 0 0 63zm0 309l0 76 116 0 25 25 -141 117 0 101 193 -160 153 150 0 -100 -135 -133 135 0 0 -76 -346 0zm0 304l0 79 64 28 0 145 -64 28 0 80 346 -152 0 -57 -346 -151zm232 179l-103 44 0 -89 103 45zm-232 437l0 76 346 0 0 -259 -39 -1c-220,-3 -242,-18 -236,-71l-71 0c-1,7 -2,14 -2,20 0,70 19,114 234,124l40 2 0 109 -272 0zm0 143l0 76 346 0 0 -76 -346 0zm-6 278c0,84 42,142 114,142 28,0 61,-7 77,-47 15,26 37,35 66,35 63,0 101,-46 101,-133 0,-75 -28,-121 -70,-152l-40 60c26,22 38,47 38,87 0,27 -7,61 -36,61 -19,0 -32,-23 -32,-64l0 -51 -72 0 0 54c0,48 -11,73 -37,73 -22,0 -37,-16 -37,-67 0,-48 15,-81 47,-104l-41 -61c-57,38 -78,95 -78,167zm6 188l0 77 209 0 -139 93 0 20 137 90 -207 0 0 77 346 0 0 -70 -166 -105 166 -110 0 -72 -346 0z"/>
  <path class="fil3" d="M12090 546c5328,-59 6372,7165 2135,9889 -220,115 -496,74 -673,-113 -243,-255 -202,-623 72,-834 999,-768 1685,-2224 1685,-3705 0,-2159 -1458,-3553 -3219,-3553l-3 0 0 -1684 3 0z"/>
  <path class="fil4" d="M12087 2230c-1760,2 -3217,1395 -3217,3553 0,1461 669,2899 1647,3675 284,225 397,558 125,858 -179,197 -467,240 -693,116 -4212,-2717 -3217,-9883 2138,-9886l0 1684z"/>
  <path class="fil5" d="M9972 878c64,0 115,51 115,115 0,64 -51,115 -115,115 -64,0 -115,-51 -115,-115 0,-64 51,-115 115,-115z"/>
  <path class="fil5" d="M9221 1366c64,0 116,51 116,115 0,64 -52,116 -116,116 -64,0 -115,-52 -115,-116 0,-64 51,-115 115,-115z"/>
  <path class="fil6" d="M5251 1109l35 0 0 -37 150 0 0 37 35 0 0 -71 -26 0 0 -176 -148 0 0 31c0,93 -10,125 -24,145l-22 0 0 71zm80 -213l78 0 0 142 -98 0c13,-24 20,-64 20,-129l0 -13zm284 126c-9,13 -25,21 -41,21 -26,0 -46,-13 -49,-37l116 0c1,-9 2,-17 2,-22 0,-43 -32,-71 -74,-71 -52,0 -80,35 -80,81 0,49 34,81 84,81 26,0 47,-11 63,-32l-21 -21zm-47 -78c22,0 37,11 39,32l-82 0c5,-20 20,-32 43,-32zm114 128l34 0 0 -98 51 64 48 -63 0 97 35 0 0 -156 -29 0 -54 71 -55 -71 -30 0 0 156zm207 -78c0,47 35,81 83,81 50,0 84,-34 84,-81 0,-47 -34,-81 -84,-81 -49,0 -83,34 -83,81zm35 0c0,-31 21,-50 48,-50 27,0 49,20 49,50 0,30 -20,49 -49,49 -28,0 -48,-21 -48,-49zm171 78l34 0 0 -53 12 -11 59 64 44 0 -78 -85 75 -71 -44 0 -68 64 0 -64 -34 0 0 156zm178 60l34 0 0 -70c7,8 24,13 41,13 47,0 78,-36 78,-83 0,-47 -29,-79 -76,-79 -15,0 -33,5 -43,17l0 -14 -34 0 0 216zm74 -188c27,0 44,19 44,50 0,29 -19,49 -47,49 -15,0 -29,-7 -37,-19l0 -54c6,-14 20,-26 40,-26zm135 17c15,-11 27,-17 44,-17 26,0 34,13 34,36 -7,-3 -21,-5 -32,-5 -41,0 -73,15 -73,50 0,30 23,49 57,49 23,0 39,-9 48,-19l0 17 34 0 0 -95c0,-41 -23,-64 -64,-64 -25,0 -50,8 -65,23l17 25zm37 83c-17,0 -28,-7 -28,-20 0,-15 16,-20 41,-20 11,0 22,2 28,4l0 15c-7,10 -20,21 -41,21zm106 -96l56 0 0 124 34 0 0 -124 57 0 0 -32 -147 0 0 32zm208 124l82 -101 0 101 34 0 0 -156 -29 0 -83 102 0 -102 -34 0 0 156 30 0zm295 -156l-34 0 0 61c-7,9 -21,17 -35,17 -25,0 -36,-11 -36,-42l0 -36 -34 0 0 47c0,43 22,62 63,62 16,0 32,-5 42,-14l0 61 34 0 0 -156zm155 156l35 0 0 -156 -35 0 0 61 -75 0 0 -61 -34 0 0 156 34 0 0 -63 75 0 0 63zm98 -111c15,-11 28,-17 45,-17 25,0 34,13 33,36 -7,-3 -21,-5 -32,-5 -41,0 -73,15 -73,50 0,30 23,49 57,49 23,0 39,-9 48,-19l0 17 34 0 0 -95c0,-41 -22,-64 -63,-64 -26,0 -51,8 -66,23l17 25zm37 83c-17,0 -28,-7 -28,-20 0,-15 16,-20 41,-20 11,0 22,2 28,4l0 15c-7,10 -20,21 -41,21zm299 28l34 0 0 -156 -141 0 0 156 34 0 0 -124 73 0 0 124zm97 -111c15,-11 28,-17 45,-17 25,0 34,13 34,36 -7,-3 -21,-5 -32,-5 -42,0 -73,15 -73,50 0,30 22,49 56,49 24,0 39,-9 49,-19l0 17 34 0 0 -95c0,-41 -23,-64 -64,-64 -25,0 -51,8 -65,23l16 25zm38 83c-17,0 -29,-7 -29,-20 0,-15 17,-20 41,-20 11,0 22,2 29,4l0 15c-7,10 -20,21 -41,21zm120 88l34 0 0 -70c7,8 24,13 41,13 47,0 78,-36 78,-83 0,-47 -29,-79 -75,-79 -16,0 -34,5 -44,17l0 -14 -34 0 0 216zm74 -188c27,0 44,19 44,50 0,29 -19,49 -47,49 -15,0 -29,-7 -37,-19l0 -54c7,-14 20,-26 40,-26zm97 4l56 0 0 124 35 0 0 -124 56 0 0 -32 -147 0 0 32zm181 124l34 0 0 -156 -34 0 0 156zm-3 -201c0,11 8,19 20,19 11,0 20,-8 20,-19 0,-10 -9,-18 -20,-18 -11,0 -20,8 -20,18zm152 45c-51,0 -69,24 -69,52 0,24 13,42 35,47l-44 57 39 0 40 -51 29 0 0 51 34 0 0 -156 -64 0zm-34 53c0,-13 9,-21 31,-21l33 0 0 41 -34 0c-19,0 -30,-8 -30,-20zm299 144c-34,-32 -55,-76 -55,-120 0,-38 14,-82 55,-119l-23 -20c-50,45 -67,97 -67,139 0,43 17,97 67,140l23 -20zm199 -101c-14,17 -35,28 -61,28 -43,0 -73,-29 -73,-73 0,-44 28,-72 71,-72 23,0 43,8 57,24l24 -23c-14,-21 -44,-36 -82,-36 -65,0 -108,47 -108,107 0,65 42,108 108,108 36,0 68,-15 85,-39l-21 -24zm61 60l236 0 0 -210 -36 0 0 176 -64 0 0 -176 -36 0 0 176 -63 0 0 -176 -37 0 0 210zm271 0l37 0 21 -46 95 0 21 46 38 0 -92 -210 -28 0 -92 210zm105 -157l35 80 -69 0 34 -80zm147 217c50,-43 66,-97 66,-139 0,-42 -16,-94 -66,-139l-23 20c40,37 54,81 54,119 0,38 -17,86 -54,119l23 20z"/>
  <path class="fil5" d="M7371 4755c64,0 116,52 116,115 0,64 -52,116 -116,116 -63,0 -115,-52 -115,-116 0,-63 52,-115 115,-115z"/>
  <path class="fil5" d="M7474 4143c63,0 115,52 115,115 0,64 -52,116 -115,116 -64,0 -116,-52 -116,-116 0,-63 52,-115 116,-115z"/>
  <path class="fil5" d="M7639 3556c64,0 116,52 116,116 0,63 -52,115 -116,115 -63,0 -115,-52 -115,-115 0,-64 52,-116 115,-116z"/>
  <path class="fil5" d="M8194 2425c64,0 116,51 116,115 0,64 -52,115 -116,115 -63,0 -115,-51 -115,-115 0,-64 52,-115 115,-115z"/>
  <path class="fil5" d="M8647 1888c63,0 115,52 115,116 0,63 -52,115 -115,115 -64,0 -116,-52 -116,-115 0,-64 52,-116 116,-116z"/>
  <path class="fil6" d="M4758 1562l36 0 0 -210 -152 0 0 47c0,118 -19,131 -42,129l0 35c4,0 8,1 12,1 33,0 66,-31 66,-149l0 -29 80 0 0 176zm90 0l34 0 0 -156 -34 0 0 156zm-3 -201c0,11 8,19 20,19 11,0 20,-8 20,-19 0,-10 -9,-18 -20,-18 -11,0 -20,8 -20,18zm223 -21c-29,8 -64,1 -92,15 -41,21 -51,60 -51,117 0,60 34,93 84,93 48,0 79,-34 79,-79 0,-48 -32,-73 -72,-73 -24,0 -45,7 -57,24 2,-24 9,-43 29,-52 23,-10 59,-4 86,-15l-6 -30zm-107 137c6,-17 23,-32 48,-32 29,0 44,17 44,43 0,26 -16,46 -44,46 -29,0 -48,-24 -48,-53l0 -4zm285 36c-9,12 -25,20 -42,20 -26,0 -46,-12 -48,-37l115 0c1,-9 2,-17 2,-22 0,-43 -31,-71 -73,-71 -52,0 -80,35 -80,81 0,49 33,81 84,81 25,0 47,-10 63,-32l-21 -20zm-48 -79c22,0 37,11 40,32l-82 0c4,-20 19,-32 42,-32zm114 188l34 0 0 -70c7,9 24,13 41,13 47,0 78,-36 78,-83 0,-47 -29,-79 -75,-79 -16,0 -34,5 -44,17l0 -14 -34 0 0 216zm74 -187c27,0 44,18 44,49 0,29 -19,49 -47,49 -15,0 -29,-6 -37,-19l0 -54c7,-13 20,-25 40,-25zm135 16c15,-11 28,-16 45,-16 25,0 34,12 33,35 -7,-3 -21,-5 -32,-5 -41,0 -73,15 -73,50 0,30 23,49 57,49 23,0 39,-9 48,-19l0 17 34 0 0 -95c0,-41 -22,-64 -63,-64 -26,0 -51,8 -66,23l17 25zm37 83c-17,0 -28,-7 -28,-19 0,-16 16,-21 41,-21 11,0 22,2 28,4l0 15c-7,11 -20,21 -41,21zm229 28l34 0 0 -156 -123 0 0 45c0,72 -18,82 -35,81l3 32c39,3 66,-19 66,-102l0 -24 55 0 0 124zm80 0l65 0c51,0 68,-27 68,-55 0,-30 -15,-55 -66,-55l-33 0 0 -46 -34 0 0 156zm64 -79c24,0 34,9 34,24 0,15 -9,24 -34,24l-30 0 0 -48 30 0zm215 79l34 0 0 -156 -34 0 0 62 -75 0 0 -62 -34 0 0 156 34 0 0 -63 75 0 0 63zm97 -111c15,-11 28,-16 45,-16 25,0 34,12 34,35 -8,-3 -21,-5 -32,-5 -42,0 -73,15 -73,50 0,30 22,49 56,49 24,0 39,-9 49,-19l0 17 34 0 0 -95c0,-41 -23,-64 -64,-64 -25,0 -51,8 -65,23l16 25zm38 83c-17,0 -29,-7 -29,-19 0,-16 17,-21 41,-21 11,0 22,2 29,4l0 15c-7,11 -20,21 -41,21zm298 28l35 0 0 -156 -142 0 0 156 34 0 0 -124 73 0 0 124zm98 -111c15,-11 28,-16 45,-16 25,0 33,12 33,35 -7,-3 -21,-5 -32,-5 -41,0 -73,15 -73,50 0,30 23,49 57,49 23,0 39,-9 48,-19l0 17 34 0 0 -95c0,-41 -22,-64 -63,-64 -26,0 -51,8 -66,23l17 25zm37 83c-17,0 -28,-7 -28,-19 0,-16 16,-21 41,-21 11,0 22,2 28,4l0 15c-7,11 -20,21 -41,21zm121 88l34 0 0 -70c7,9 23,13 41,13 47,0 78,-36 78,-83 0,-47 -29,-79 -76,-79 -15,0 -33,5 -43,17l0 -14 -34 0 0 216zm74 -187c27,0 43,18 43,49 0,29 -18,49 -46,49 -15,0 -30,-6 -37,-19l0 -54c6,-13 20,-25 40,-25zm96 3l57 0 0 124 34 0 0 -124 56 0 0 -32 -147 0 0 32zm182 124l34 0 0 -156 -34 0 0 156zm-3 -201c0,11 8,19 20,19 11,0 20,-8 20,-19 0,-10 -9,-18 -20,-18 -12,0 -20,8 -20,18zm152 45c-51,0 -70,24 -70,52 0,24 14,42 36,47l-45 57 40 0 39 -51 30 0 0 51 34 0 0 -156 -64 0zm-34 53c0,-12 8,-21 31,-21l33 0 0 41 -34 0c-20,0 -30,-8 -30,-20zm298 144c-33,-32 -54,-75 -54,-120 0,-38 14,-81 54,-119l-23 -20c-50,45 -66,97 -66,139 0,43 16,97 66,140l23 -20zm39 -41l36 0 0 -73 19 -18 81 91 49 0 -103 -115 96 -95 -48 0 -94 92 0 -92 -36 0 0 210zm230 -111c15,-11 28,-16 45,-16 25,0 34,12 33,35 -7,-3 -21,-5 -32,-5 -41,0 -73,15 -73,50 0,30 23,49 57,49 23,0 39,-9 48,-19l0 17 34 0 0 -95c0,-41 -22,-64 -63,-64 -26,0 -51,8 -66,23l17 25zm37 83c-17,0 -28,-7 -28,-19 0,-16 16,-21 41,-21 11,0 22,2 28,4l0 15c-7,11 -20,21 -41,21zm230 28l34 0 0 -156 -34 0 0 62 -75 0 0 -62 -34 0 0 156 34 0 0 -63 75 0 0 63zm97 -111c15,-11 28,-16 45,-16 25,0 34,12 34,35 -7,-3 -21,-5 -32,-5 -42,0 -73,15 -73,50 0,30 22,49 56,49 24,0 39,-9 49,-19l0 17 34 0 0 -95c0,-41 -23,-64 -64,-64 -25,0 -51,8 -65,23l16 25zm38 83c-17,0 -29,-7 -29,-19 0,-16 17,-21 41,-21 11,0 22,2 29,4l0 15c-7,11 -20,21 -41,21zm106 64l32 0 0 -36 113 0 0 36 32 0 0 -67 -22 0 0 -125 -119 0 0 27c0,41 -4,73 -18,98l-18 0 0 67zm68 -160l53 0 0 93 -68 0c10,-19 15,-51 15,-80l0 -13zm157 13c15,-11 28,-16 45,-16 25,0 34,12 33,35 -7,-3 -21,-5 -32,-5 -41,0 -72,15 -72,50 0,30 22,49 56,49 23,0 39,-9 48,-19l0 17 35 0 0 -95c0,-41 -23,-64 -64,-64 -26,0 -51,8 -66,23l17 25zm38 83c-18,0 -29,-7 -29,-19 0,-16 16,-21 41,-21 11,0 22,2 28,4l0 15c-6,11 -20,21 -40,21zm131 88c49,-43 66,-96 66,-139 0,-42 -17,-94 -67,-139l-23 20c40,38 55,81 55,119 0,39 -17,87 -55,119l24 20z"/>
  <path class="fil6" d="M3290 2085l36 0 0 -210 -151 0 0 46c0,118 -20,132 -43,129l0 35c4,0 9,1 13,1 33,1 65,-31 65,-149l0 -28 80 0 0 176zm206 -50c-9,13 -25,21 -41,21 -26,0 -46,-13 -49,-37l116 0c1,-10 2,-17 2,-22 0,-44 -32,-72 -74,-72 -52,0 -80,36 -80,82 0,49 34,80 84,80 26,0 47,-10 63,-31l-21 -21zm-47 -79c22,0 37,11 39,33l-82 0c5,-20 20,-33 43,-33zm143 129l83 -102 0 102 34 0 0 -156 -29 0 -83 102 0 -102 -34 0 0 156 29 0zm-6 -222c1,31 24,46 53,46 28,0 51,-16 52,-46l-31 0c0,12 -7,20 -21,20 -14,0 -21,-8 -21,-20l-32 0zm306 -1c-28,9 -64,1 -92,16 -41,20 -50,60 -50,116 0,61 33,94 83,94 48,0 79,-34 79,-80 0,-47 -31,-72 -72,-72 -24,0 -44,7 -56,24 1,-24 9,-43 29,-52 23,-11 59,-4 85,-15l-6 -31zm-107 138c7,-17 23,-32 49,-32 28,0 43,17 43,42 0,27 -16,46 -44,46 -28,0 -48,-23 -48,-53l0 -3zm159 7c0,46 35,80 84,80 49,0 83,-34 83,-80 0,-48 -34,-82 -83,-82 -50,0 -84,34 -84,82zm36 0c0,-31 20,-50 48,-50 27,0 48,19 48,50 0,30 -20,49 -48,49 -29,0 -48,-21 -48,-49zm170 138l35 0 0 -70c7,8 23,12 40,12 47,0 78,-35 78,-83 0,-46 -28,-79 -75,-79 -16,0 -33,6 -43,18l0 -14 -35 0 0 216zm74 -188c27,0 44,18 44,50 0,29 -19,49 -46,49 -16,0 -30,-7 -37,-19l0 -54c6,-14 19,-26 39,-26zm148 128l83 -102 0 102 34 0 0 -156 -30 0 -82 102 0 -102 -35 0 0 156 30 0zm283 -51c-9,13 -22,22 -39,22 -32,0 -52,-21 -52,-49 0,-30 20,-50 48,-50 18,0 30,6 40,20l25 -16c-10,-21 -34,-36 -66,-36 -50,0 -83,35 -83,82 0,49 34,80 84,80 27,0 54,-13 67,-38l-24 -15zm44 -73l56 0 0 124 34 0 0 -124 57 0 0 -32 -147 0 0 32zm292 73c-9,13 -22,22 -40,22 -31,0 -51,-21 -51,-49 0,-30 20,-50 48,-50 18,0 29,6 40,20l25 -16c-10,-21 -35,-36 -67,-36 -49,0 -82,35 -82,82 0,49 34,80 84,80 27,0 54,-13 67,-38l-24 -15zm56 51l65 0c51,0 68,-27 68,-56 0,-29 -15,-55 -66,-55l-33 0 0 -45 -34 0 0 156zm64 -79c24,0 34,8 34,23 0,16 -9,24 -34,24l-30 0 0 -47 30 0zm106 79l34 0 0 -53 11 -11 60 64 44 0 -79 -86 76 -70 -45 0 -67 63 0 -63 -34 0 0 156zm190 -111c15,-12 28,-17 45,-17 25,0 33,13 33,35 -7,-2 -21,-4 -32,-4 -41,0 -73,15 -73,49 0,30 23,50 57,50 23,0 39,-9 48,-19l0 17 34 0 0 -96c0,-40 -22,-64 -63,-64 -26,0 -51,9 -66,23l17 26zm37 83c-17,0 -28,-8 -28,-20 0,-15 16,-21 41,-21 11,0 22,3 28,5l0 15c-7,10 -20,21 -41,21zm299 28l34 0 0 -156 -141 0 0 156 34 0 0 -124 73 0 0 124zm97 -111c15,-12 28,-17 45,-17 25,0 34,13 34,35 -8,-2 -21,-4 -32,-4 -42,0 -73,15 -73,49 0,30 22,50 56,50 24,0 39,-9 49,-19l0 17 34 0 0 -96c0,-40 -23,-64 -64,-64 -25,0 -51,9 -65,23l16 26zm38 83c-17,0 -29,-8 -29,-20 0,-15 17,-21 41,-21 11,0 22,3 29,5l0 15c-7,10 -20,21 -41,21zm120 88l34 0 0 -70c7,8 24,12 41,12 47,0 78,-35 78,-83 0,-46 -29,-79 -75,-79 -16,0 -34,6 -44,18l0 -14 -34 0 0 216zm74 -188c27,0 44,18 44,50 0,29 -19,49 -47,49 -15,0 -29,-7 -37,-19l0 -54c7,-14 20,-26 40,-26zm97 4l56 0 0 124 35 0 0 -124 56 0 0 -32 -147 0 0 32zm181 124l34 0 0 -156 -34 0 0 156zm-3 -201c0,11 8,19 20,19 11,0 20,-8 20,-19 0,-10 -9,-18 -20,-18 -11,0 -20,8 -20,18zm152 45c-51,0 -69,24 -69,51 0,24 13,43 35,48l-45 57 40 0 40 -51 29 0 0 51 34 0 0 -156 -64 0zm-34 53c0,-13 9,-21 31,-21l33 0 0 41 -34 0c-19,0 -30,-9 -30,-20zm299 143c-34,-32 -55,-75 -55,-119 0,-38 14,-82 55,-119l-23 -21c-50,46 -67,98 -67,140 0,42 17,96 67,139l23 -20zm192 -250l-154 0 0 210 84 0c54,0 85,-20 85,-66 0,-39 -25,-62 -74,-62l-58 0 0 -48 117 0 0 -34zm-67 116c31,0 44,9 44,28 0,22 -15,32 -45,32l-49 0 0 -60 50 0zm121 154l34 0 0 -70c7,8 24,12 41,12 47,0 78,-35 78,-83 0,-46 -29,-79 -75,-79 -16,0 -34,6 -44,18l0 -14 -34 0 0 216zm74 -188c27,0 44,18 44,50 0,29 -19,49 -47,49 -15,0 -29,-7 -37,-19l0 -54c7,-14 20,-26 40,-26zm148 128l83 -102 0 102 34 0 0 -156 -30 0 -83 102 0 -102 -34 0 0 156 30 0zm148 -124l57 0 0 124 34 0 0 -124 56 0 0 -32 -147 0 0 32zm195 13c15,-12 28,-17 45,-17 25,0 34,13 34,35 -7,-2 -21,-4 -32,-4 -42,0 -73,15 -73,49 0,30 22,50 56,50 24,0 39,-9 49,-19l0 17 34 0 0 -96c0,-40 -23,-64 -64,-64 -25,0 -51,9 -65,23l16 26zm38 83c-17,0 -29,-8 -29,-20 0,-15 17,-21 41,-21 11,0 22,3 29,5l0 15c-7,10 -20,21 -41,21zm229 28l35 0 0 -156 -35 0 0 61 -74 0 0 -61 -35 0 0 156 35 0 0 -63 74 0 0 63zm84 0l34 0 0 -156 -34 0 0 156zm-3 -201c0,11 8,19 20,19 11,0 20,-8 20,-19 0,-10 -9,-18 -20,-18 -11,0 -20,8 -20,18zm152 45c-51,0 -69,24 -69,51 0,24 13,43 35,48l-44 57 39 0 40 -51 29 0 0 51 34 0 0 -156 -64 0zm-34 53c0,-13 9,-21 31,-21l33 0 0 41 -34 0c-19,0 -30,-9 -30,-20zm155 163c49,-43 66,-97 66,-139 0,-42 -17,-94 -66,-140l-23 21c40,37 54,80 54,119 0,38 -17,86 -54,119l23 20z"/>
  <path class="fil6" d="M3473 2656l35 0 0 -37 150 0 0 37 35 0 0 -71 -25 0 0 -176 -149 0 0 31c0,93 -9,125 -23,145l-23 0 0 71zm81 -213l77 0 0 142 -97 0c13,-24 20,-64 20,-129l0 -13zm284 126c-10,13 -25,21 -42,21 -26,0 -46,-13 -49,-37l116 0c1,-9 2,-17 2,-22 0,-43 -31,-71 -73,-71 -52,0 -80,35 -80,81 0,49 33,81 83,81 26,0 48,-11 64,-32l-21 -21zm-48 -79c22,0 37,12 40,33l-82 0c4,-20 19,-33 42,-33zm114 129l34 0 0 -98 52 64 48 -63 0 97 34 0 0 -156 -28 0 -55 71 -54 -71 -31 0 0 156zm207 -78c0,47 35,81 84,81 49,0 83,-34 83,-81 0,-47 -34,-81 -83,-81 -50,0 -84,34 -84,81zm36 0c0,-31 20,-50 48,-50 27,0 48,20 48,50 0,30 -20,49 -48,49 -29,0 -48,-21 -48,-49zm170 78l35 0 0 -53 11 -11 60 64 43 0 -78 -85 76 -71 -45 0 -67 63 0 -63 -35 0 0 156zm178 60l35 0 0 -70c6,8 23,13 40,13 47,0 78,-36 78,-84 0,-46 -28,-78 -75,-78 -16,0 -34,5 -43,17l0 -14 -35 0 0 216zm74 -188c27,0 44,19 44,50 0,29 -19,49 -47,49 -15,0 -29,-7 -36,-19l0 -54c6,-14 19,-26 39,-26zm135 17c15,-12 28,-17 45,-17 25,0 34,13 33,35 -7,-2 -21,-4 -32,-4 -41,0 -73,15 -73,50 0,30 23,49 57,49 23,0 39,-9 48,-19l0 17 35 0 0 -95c0,-41 -23,-64 -64,-64 -26,0 -51,8 -66,23l17 25zm38 83c-18,0 -29,-7 -29,-20 0,-15 16,-20 41,-20 11,0 22,2 28,4l0 15c-6,10 -20,21 -40,21zm105 -96l56 0 0 124 35 0 0 -124 56 0 0 -32 -147 0 0 32zm208 124l83 -101 0 101 34 0 0 -156 -30 0 -83 102 0 -102 -34 0 0 156 30 0zm295 -156l-34 0 0 60c-7,10 -20,18 -34,18 -25,0 -36,-12 -36,-42l0 -36 -34 0 0 47c0,43 21,62 62,62 17,0 32,-5 42,-14l0 61 34 0 0 -156zm156 156l34 0 0 -156 -34 0 0 61 -75 0 0 -61 -34 0 0 156 34 0 0 -63 75 0 0 63zm97 -111c15,-12 28,-17 45,-17 25,0 34,13 34,35 -8,-2 -21,-4 -32,-4 -42,0 -73,15 -73,50 0,30 22,49 56,49 23,0 39,-9 49,-19l0 17 34 0 0 -95c0,-41 -23,-64 -64,-64 -26,0 -51,8 -65,23l16 25zm38 83c-18,0 -29,-7 -29,-20 0,-15 17,-20 41,-20 11,0 22,2 29,4l0 15c-7,10 -20,21 -41,21zm298 28l34 0 0 -156 -141 0 0 156 34 0 0 -124 73 0 0 124zm98 -111c15,-12 27,-17 45,-17 25,0 33,13 33,35 -7,-2 -21,-4 -32,-4 -41,0 -73,15 -73,50 0,30 23,49 57,49 23,0 39,-9 48,-19l0 17 34 0 0 -95c0,-41 -22,-64 -64,-64 -25,0 -50,8 -65,23l17 25zm37 83c-17,0 -28,-7 -28,-20 0,-15 16,-20 41,-20 11,0 22,2 28,4l0 15c-7,10 -20,21 -41,21zm121 88l34 0 0 -70c7,8 23,13 41,13 46,0 78,-36 78,-84 0,-46 -29,-78 -76,-78 -16,0 -33,5 -43,17l0 -14 -34 0 0 216zm73 -188c27,0 44,19 44,50 0,29 -18,49 -46,49 -16,0 -30,-7 -37,-19l0 -54c6,-14 20,-26 39,-26zm97 4l57 0 0 124 34 0 0 -124 56 0 0 -32 -147 0 0 32zm182 124l34 0 0 -156 -34 0 0 156zm-3 -201c0,11 8,19 20,19 11,0 19,-8 19,-19 0,-10 -8,-18 -19,-18 -12,0 -20,8 -20,18zm151 45c-51,0 -69,24 -69,52 0,24 14,42 36,47l-45 57 40 0 39 -51 29 0 0 51 35 0 0 -156 -65 0zm-33 53c0,-13 8,-21 30,-21l33 0 0 41 -33 0c-20,0 -30,-8 -30,-20zm298 144c-33,-32 -55,-76 -55,-120 0,-38 15,-82 55,-119l-23 -20c-50,45 -66,97 -66,139 0,43 16,97 66,140l23 -20zm200 -101c-15,17 -35,28 -62,28 -43,0 -73,-29 -73,-73 0,-44 29,-72 72,-72 23,0 42,8 57,24l24 -23c-15,-21 -45,-36 -83,-36 -65,0 -107,47 -107,107 0,65 42,108 108,108 35,0 67,-15 85,-39l-21 -24zm61 60l235 0 0 -210 -36 0 0 176 -63 0 0 -176 -37 0 0 176 -63 0 0 -176 -36 0 0 210zm270 0l38 0 20 -46 96 0 20 46 38 0 -92 -210 -28 0 -92 210zm106 -157l34 79 -69 0 35 -79zm147 217c49,-43 66,-97 66,-139 0,-42 -17,-94 -67,-139l-22 20c39,37 54,81 54,119 0,38 -17,86 -55,119l24 20z"/>
  <path class="fil6" d="M2777 3788l35 0 0 -37 149 0 0 37 35 0 0 -71 -25 0 0 -176 -149 0 0 31c0,93 -9,124 -23,145l-22 0 0 71zm80 -213l78 0 0 142 -98 0c13,-25 20,-64 20,-129l0 -13zm284 126c-9,13 -25,21 -42,21 -25,0 -46,-13 -48,-37l116 0c1,-10 1,-17 1,-22 0,-43 -31,-72 -73,-72 -52,0 -80,36 -80,82 0,49 34,81 84,81 25,0 47,-11 63,-32l-21 -21zm-47 -79c22,0 36,11 39,33l-82 0c5,-20 20,-33 43,-33zm113 129l35 0 0 -98 51 64 48 -63 0 97 34 0 0 -156 -28 0 -54 71 -55 -71 -31 0 0 156zm208 -78c0,46 34,81 83,81 49,0 84,-35 84,-81 0,-47 -35,-82 -84,-82 -49,0 -83,35 -83,82zm35 0c0,-31 21,-50 48,-50 27,0 48,19 48,50 0,30 -19,49 -48,49 -28,0 -48,-21 -48,-49zm171 78l34 0 0 -53 11 -11 60 64 44 0 -79 -86 76 -70 -45 0 -67 63 0 -63 -34 0 0 156zm178 60l34 0 0 -70c7,8 23,13 41,13 46,0 78,-36 78,-84 0,-46 -29,-79 -76,-79 -16,0 -33,6 -43,18l0 -14 -34 0 0 216zm73 -188c27,0 44,18 44,50 0,29 -18,49 -46,49 -16,0 -30,-7 -37,-19l0 -54c6,-14 20,-26 39,-26zm136 17c15,-12 27,-17 44,-17 25,0 34,13 34,35 -7,-2 -21,-4 -32,-4 -42,0 -73,15 -73,49 0,30 22,50 57,50 23,0 38,-9 48,-19l0 17 34 0 0 -95c0,-41 -23,-65 -64,-65 -25,0 -51,9 -65,23l17 26zm37 83c-17,0 -29,-8 -29,-20 0,-15 17,-21 41,-21 11,0 22,3 29,5l0 15c-7,10 -20,21 -41,21zm105 -96l57 0 0 124 34 0 0 -124 56 0 0 -32 -147 0 0 32zm208 124l83 -101 0 101 34 0 0 -156 -29 0 -83 102 0 -102 -34 0 0 156 29 0zm296 -156l-34 0 0 60c-7,10 -21,17 -35,17 -25,0 -36,-11 -36,-42l0 -35 -34 0 0 47c0,42 22,62 63,62 16,0 32,-5 42,-14l0 61 34 0 0 -156zm155 156l34 0 0 -156 -34 0 0 61 -75 0 0 -61 -34 0 0 156 34 0 0 -63 75 0 0 63zm98 -111c15,-12 27,-17 44,-17 26,0 34,13 34,35 -7,-2 -21,-4 -32,-4 -42,0 -73,15 -73,49 0,30 22,50 57,50 23,0 39,-9 48,-19l0 17 34 0 0 -95c0,-41 -23,-65 -64,-65 -25,0 -50,9 -65,23l17 26zm37 83c-17,0 -29,-8 -29,-20 0,-15 17,-21 41,-21 12,0 23,3 29,5l0 15c-7,10 -20,21 -41,21zm299 28l34 0 0 -156 -142 0 0 156 34 0 0 -124 74 0 0 124zm97 -111c15,-12 28,-17 45,-17 25,0 34,13 33,35 -7,-2 -21,-4 -32,-4 -41,0 -72,15 -72,49 0,30 22,50 56,50 23,0 39,-9 48,-19l0 17 35 0 0 -95c0,-41 -23,-65 -64,-65 -26,0 -51,9 -66,23l17 26zm38 83c-18,0 -29,-8 -29,-20 0,-15 16,-21 41,-21 11,0 22,3 28,5l0 15c-6,10 -20,21 -40,21zm120 88l34 0 0 -70c7,8 24,13 41,13 47,0 78,-36 78,-84 0,-46 -29,-79 -76,-79 -15,0 -33,6 -43,18l0 -14 -34 0 0 216zm74 -188c27,0 44,18 44,50 0,29 -19,49 -47,49 -15,0 -29,-7 -37,-19l0 -54c6,-14 20,-26 40,-26zm97 4l56 0 0 124 34 0 0 -124 57 0 0 -32 -147 0 0 32zm181 124l34 0 0 -156 -34 0 0 156zm-3 -201c0,11 8,19 20,19 11,0 20,-8 20,-19 0,-10 -9,-18 -20,-18 -11,0 -20,8 -20,18zm152 45c-51,0 -69,24 -69,52 0,24 13,42 35,47l-45 57 40 0 40 -51 29 0 0 51 34 0 0 -156 -64 0zm-34 53c0,-13 9,-21 31,-21l33 0 0 41 -34 0c-20,0 -30,-9 -30,-20zm299 143c-34,-32 -55,-75 -55,-119 0,-38 14,-82 54,-119l-22 -20c-51,45 -67,97 -67,139 0,42 16,96 67,139l23 -20zm38 -40l36 0 0 -210 -36 0 0 210zm73 -124l56 0 0 124 34 0 0 -124 57 0 0 -32 -147 0 0 32zm195 13c15,-12 27,-17 44,-17 26,0 34,13 34,35 -7,-2 -21,-4 -32,-4 -41,0 -73,15 -73,49 0,30 23,50 57,50 23,0 39,-9 48,-19l0 17 34 0 0 -95c0,-41 -23,-65 -64,-65 -25,0 -50,9 -65,23l17 26zm37 83c-17,0 -29,-8 -29,-20 0,-15 17,-21 42,-21 11,0 22,3 28,5l0 15c-7,10 -20,21 -41,21zm229 28l34 0 0 -156 -123 0 0 44c0,73 -18,83 -35,81l3 32c38,3 65,-18 65,-101l0 -24 56 0 0 124zm83 0l34 0 0 -156 -34 0 0 156zm-3 -201c0,11 8,19 20,19 11,0 20,-8 20,-19 0,-10 -9,-18 -20,-18 -11,0 -20,8 -20,18zm152 45c-51,0 -69,24 -69,52 0,24 13,42 35,47l-45 57 40 0 40 -51 29 0 0 51 34 0 0 -156 -64 0zm-34 53c0,-13 9,-21 31,-21l33 0 0 41 -34 0c-20,0 -30,-9 -30,-20zm155 163c49,-43 66,-97 66,-139 0,-42 -17,-94 -67,-139l-22 20c40,37 54,81 54,119 0,38 -17,86 -55,119l24 20z"/>
  <path class="fil6" d="M4421 4278c-14,17 -34,27 -61,27 -43,0 -73,-29 -73,-72 0,-44 29,-73 72,-73 23,0 42,8 56,24l24 -23c-14,-20 -44,-36 -82,-36 -65,0 -107,48 -107,108 0,65 42,107 108,107 35,0 67,-14 85,-39l-22 -23zm34 96l35 0 0 -36 150 0 0 36 35 0 0 -70 -26 0 0 -176 -148 0 0 30c0,93 -10,125 -23,146l-23 0 0 70zm81 -213l77 0 0 143 -98 0c14,-25 21,-64 21,-129l0 -14zm323 177l36 0 0 -210 -182 0 0 210 37 0 0 -176 109 0 0 176zm239 0l36 0 0 -210 -36 0 0 86 -110 0 0 -86 -36 0 0 210 36 0 0 -90 110 0 0 90zm242 40c-34,-32 -55,-75 -55,-119 0,-39 15,-82 55,-120l-23 -20c-50,45 -67,98 -67,140 0,42 17,96 67,139l23 -20zm185 -40l36 0 0 -210 -36 0 0 86 -110 0 0 -86 -36 0 0 210 36 0 0 -90 110 0 0 90zm91 0l34 0 0 -156 -34 0 0 156zm-3 -201c0,11 8,18 20,18 11,0 19,-7 19,-18 0,-11 -8,-18 -19,-18 -12,0 -20,7 -20,18zm86 201l34 0 0 -98 51 63 48 -62 0 97 35 0 0 -156 -29 0 -54 70 -55 -70 -30 0 0 156zm333 -50c-9,12 -25,20 -42,20 -26,0 -46,-12 -48,-37l115 0c2,-9 2,-17 2,-22 0,-43 -31,-71 -73,-71 -52,0 -80,36 -80,81 0,49 34,81 84,81 25,0 47,-10 63,-32l-21 -20zm-47 -79c21,0 36,11 39,33l-82 0c4,-21 19,-33 43,-33zm245 -27l-34 0 0 60c-7,9 -20,17 -34,17 -26,0 -36,-11 -36,-42l0 -35 -35 0 0 47c0,42 22,62 63,62 17,0 32,-6 42,-15l0 62 34 0 0 -156zm178 0l-34 0 0 60c-7,9 -20,17 -34,17 -25,0 -36,-11 -36,-42l0 -35 -34 0 0 47c0,42 22,62 62,62 17,0 32,-6 42,-15l0 62 34 0 0 -156zm76 156l83 -102 0 102 34 0 0 -156 -29 0 -83 101 0 -101 -34 0 0 156 29 0zm273 0l34 0 0 -156 -34 0 0 61 -75 0 0 -61 -34 0 0 156 34 0 0 -64 75 0 0 64zm98 -112c15,-11 27,-16 44,-16 25,0 34,12 34,35 -7,-3 -21,-4 -32,-4 -42,0 -73,14 -73,49 0,30 22,49 57,49 23,0 39,-8 48,-19l0 18 34 0 0 -96c0,-41 -23,-64 -64,-64 -25,0 -50,9 -65,23l17 25zm37 84c-17,0 -29,-8 -29,-20 0,-16 17,-21 41,-21 12,0 23,2 29,4l0 15c-7,11 -20,22 -41,22zm131 87c49,-42 66,-96 66,-138 0,-42 -17,-95 -66,-140l-23 20c40,38 54,81 54,120 0,38 -17,86 -54,118l23 20z"/>
  <path class="fil6" d="M2334 4890c-15,17 -35,27 -61,27 -43,0 -73,-29 -73,-72 0,-44 28,-73 71,-73 23,0 42,8 57,24l24 -22c-15,-21 -45,-37 -83,-37 -65,0 -107,48 -107,108 0,65 42,107 108,107 36,0 68,-14 85,-39l-21 -23zm41 -19c0,47 35,81 83,81 49,0 84,-34 84,-81 0,-47 -35,-81 -84,-81 -49,0 -83,34 -83,81zm35 0c0,-30 21,-49 48,-49 27,0 49,19 49,49 0,30 -20,50 -49,50 -28,0 -48,-21 -48,-50zm171 79l130 0 0 35 32 0 0 -67 -21 0 0 -124 -35 0 0 124 -72 0 0 -124 -34 0 0 156zm197 0l34 0 0 -156 -34 0 0 156zm-3 -201c0,11 8,18 20,18 11,0 20,-7 20,-18 0,-10 -9,-18 -20,-18 -11,0 -20,8 -20,18zm103 89c15,-11 27,-16 44,-16 26,0 34,12 34,35 -7,-2 -21,-4 -32,-4 -41,0 -73,14 -73,49 0,30 23,49 57,49 23,0 39,-8 48,-18l0 17 34 0 0 -96c0,-41 -23,-64 -64,-64 -25,0 -50,9 -65,23l17 25zm37 84c-17,0 -28,-8 -28,-20 0,-16 16,-21 41,-21 11,0 22,2 28,4l0 15c-7,11 -20,22 -41,22zm229 28l34 0 0 -156 -123 0 0 44c0,72 -18,83 -35,81l3 32c38,3 65,-18 65,-101l0 -25 56 0 0 125zm83 0l34 0 0 -156 -34 0 0 156zm-3 -201c0,11 8,18 20,18 11,0 20,-7 20,-18 0,-10 -9,-18 -20,-18 -11,0 -20,8 -20,18zm206 149c-9,14 -22,23 -40,23 -31,0 -52,-21 -52,-50 0,-29 20,-49 49,-49 17,0 29,6 40,20l25 -17c-10,-20 -35,-35 -67,-35 -49,0 -82,35 -82,81 0,50 34,81 84,81 27,0 54,-13 67,-38l-24 -16zm43 -73l57 0 0 125 34 0 0 -125 56 0 0 -31 -147 0 0 31zm208 125l83 -102 0 102 34 0 0 -156 -29 0 -83 101 0 -101 -34 0 0 156 29 0zm296 -156l-34 0 0 60c-7,9 -21,17 -35,17 -25,0 -36,-11 -36,-42l0 -35 -34 0 0 47c0,42 22,62 63,62 16,0 32,-6 42,-15l0 62 34 0 0 -156zm155 156l34 0 0 -156 -34 0 0 61 -75 0 0 -61 -34 0 0 156 34 0 0 -64 75 0 0 64zm98 -112c15,-11 27,-16 44,-16 26,0 34,12 34,35 -7,-2 -21,-4 -32,-4 -41,0 -73,14 -73,49 0,30 23,49 57,49 23,0 39,-8 48,-18l0 17 34 0 0 -96c0,-41 -23,-64 -64,-64 -25,0 -50,9 -65,23l17 25zm37 84c-17,0 -29,-8 -29,-20 0,-16 17,-21 42,-21 11,0 22,2 28,4l0 15c-7,11 -20,22 -41,22zm299 28l34 0 0 -156 -142 0 0 156 35 0 0 -125 73 0 0 125zm97 -112c15,-11 28,-16 45,-16 25,0 34,12 34,35 -8,-2 -21,-4 -33,-4 -41,0 -72,14 -72,49 0,30 22,49 56,49 23,0 39,-8 49,-18l0 17 34 0 0 -96c0,-41 -23,-64 -64,-64 -26,0 -51,9 -66,23l17 25zm38 84c-18,0 -29,-8 -29,-20 0,-16 16,-21 41,-21 11,0 22,2 29,4l0 15c-7,11 -21,22 -41,22zm120 88l34 0 0 -71c7,9 24,13 41,13 47,0 78,-35 78,-83 0,-46 -29,-79 -76,-79 -15,0 -33,5 -43,18l0 -14 -34 0 0 216zm74 -188c27,0 44,18 44,50 0,29 -19,49 -47,49 -15,0 -29,-7 -37,-20l0 -54c7,-13 20,-25 40,-25zm97 3l56 0 0 125 34 0 0 -125 57 0 0 -31 -147 0 0 31zm181 125l34 0 0 -156 -34 0 0 156zm-3 -201c0,11 8,18 20,18 11,0 20,-7 20,-18 0,-10 -9,-18 -20,-18 -11,0 -20,8 -20,18zm152 45c-51,0 -69,24 -69,51 0,24 13,43 35,48l-45 57 40 0 40 -52 29 0 0 52 34 0 0 -156 -64 0zm-34 52c0,-12 9,-21 31,-21l33 0 0 42 -34 0c-20,0 -30,-9 -30,-21zm299 144c-34,-32 -55,-75 -55,-119 0,-39 14,-82 54,-120l-22 -20c-50,46 -67,98 -67,140 0,42 17,96 67,139l23 -20zm131 -36l36 0 0 -25 1 0c62,0 104,-35 104,-87 0,-59 -50,-88 -105,-88l0 -19 -36 0 0 19c-61,0 -106,31 -106,88 0,53 43,87 105,87l1 0 0 25zm36 -166c45,0 68,20 68,54 0,35 -28,53 -67,53l-1 0c0,0 0,-27 0,-107l0 0zm-104 54c0,-37 29,-54 68,-54l0 107 -1 0c-44,0 -67,-23 -67,-53zm248 168l34 0 0 -71c7,9 23,13 41,13 46,0 77,-35 77,-83 0,-46 -28,-79 -75,-79 -16,0 -33,5 -43,18l0 -14 -34 0 0 216zm73 -188c27,0 44,18 44,50 0,29 -18,49 -46,49 -16,0 -30,-7 -37,-20l0 -54c6,-13 20,-25 39,-25zm135 16c15,-11 28,-16 45,-16 25,0 34,12 34,35 -8,-2 -21,-4 -32,-4 -42,0 -73,14 -73,49 0,30 22,49 56,49 23,0 39,-8 49,-18l0 17 34 0 0 -96c0,-41 -23,-64 -64,-64 -26,0 -51,9 -65,23l16 25zm38 84c-18,0 -29,-8 -29,-20 0,-16 17,-21 41,-21 11,0 22,2 29,4l0 15c-7,11 -20,22 -41,22zm229 28l35 0 0 -156 -35 0 0 61 -75 0 0 -61 -34 0 0 156 34 0 0 -64 75 0 0 64zm81 0l130 0 0 35 32 0 0 -67 -21 0 0 -124 -34 0 0 124 -73 0 0 -124 -34 0 0 156zm197 0l34 0 0 -156 -34 0 0 156zm-3 -201c0,11 8,18 20,18 11,0 20,-7 20,-18 0,-10 -9,-18 -20,-18 -11,0 -20,8 -20,18zm152 45c-51,0 -70,24 -70,51 0,24 14,43 36,48l-45 57 40 0 40 -52 29 0 0 52 34 0 0 -156 -64 0zm-34 52c0,-12 9,-21 31,-21l33 0 0 42 -34 0c-20,0 -30,-9 -30,-21zm155 164c49,-43 66,-97 66,-139 0,-42 -17,-94 -67,-140l-22 20c39,38 54,81 54,120 0,38 -17,86 -55,118l24 21z"/>
  <path class="fil5" d="M12131 431c64,0 116,51 116,115 0,64 -52,115 -116,115 -64,0 -115,-51 -115,-115 0,-64 51,-115 115,-115z"/>
  <path class="fil5" d="M13626 640c64,0 115,51 115,115 0,64 -51,115 -115,115 -64,0 -115,-51 -115,-115 0,-64 51,-115 115,-115z"/>
  <path class="fil5" d="M14719 1145c63,0 115,51 115,115 0,64 -52,115 -115,115 -64,0 -116,-51 -116,-115 0,-64 52,-115 116,-115z"/>
  <path class="fil5" d="M15410 1704c64,0 115,52 115,115 0,64 -51,116 -115,116 -64,0 -115,-52 -115,-116 0,-63 51,-115 115,-115z"/>
  <path class="fil5" d="M15864 2235c63,0 115,52 115,116 0,64 -52,115 -115,115 -64,0 -116,-51 -116,-115 0,-64 52,-116 116,-116z"/>
  <path class="fil5" d="M16207 2783c64,0 116,52 116,116 0,64 -52,115 -116,115 -63,0 -115,-51 -115,-115 0,-64 52,-116 115,-116z"/>
  <path class="fil6" d="M12071 215l24 -22 -38 -44 38 -44 -24 -21 -55 64 0 1 55 66zm63 0l24 -22 -38 -44 38 -44 -23 -21 -56 64 0 1 55 66zm108 11l0 -72 49 0c65,0 87,-34 87,-69 0,-33 -16,-69 -87,-69l-85 0 0 210 36 0zm50 -176c36,0 48,15 48,35 0,21 -15,35 -50,35l-48 0 0 -70 50 0zm230 126c-9,13 -25,21 -42,21 -26,0 -46,-13 -48,-37l115 0c2,-9 2,-17 2,-22 0,-43 -31,-71 -73,-71 -52,0 -80,35 -80,81 0,49 34,81 84,81 25,0 47,-11 63,-32l-21 -21zm-48 -79c22,0 37,12 40,33l-82 0c4,-20 19,-33 42,-33zm231 78c-9,13 -22,22 -40,22 -31,0 -52,-21 -52,-49 0,-30 21,-50 49,-50 17,0 29,7 40,21l25 -17c-10,-21 -35,-35 -67,-35 -49,0 -82,35 -82,81 0,49 34,81 84,81 27,0 54,-13 67,-39l-24 -15zm163 51l35 0 0 -156 -142 0 0 156 34 0 0 -124 73 0 0 124zm88 58c6,3 13,5 21,5 26,0 41,-16 62,-67l62 -152 -37 0 -41 105 -54 -105 -40 0 77 147 -5 14c-8,19 -16,26 -25,26 -3,0 -5,-1 -7,-2l-13 29zm308 -281c-28,9 -64,2 -92,16 -41,21 -50,60 -50,117 0,60 33,93 83,93 48,0 79,-34 79,-80 0,-47 -31,-72 -71,-72 -25,0 -45,7 -57,24 1,-24 9,-43 29,-52 23,-10 59,-4 85,-15l-6 -31zm-107 138c7,-17 23,-32 49,-32 28,0 43,17 43,42 0,27 -16,46 -44,46 -28,0 -48,-23 -48,-52l0 -4zm267 85l35 0 0 -156 -123 0 0 45c0,72 -19,82 -35,81l2 31c39,4 66,-18 66,-101l0 -24 55 0 0 124zm84 0l34 0 0 -156 -34 0 0 156zm-3 -201c0,11 8,19 20,19 11,0 20,-8 20,-19 0,-10 -9,-18 -20,-18 -12,0 -20,8 -20,18zm86 201l34 0 0 -53 12 -11 59 64 44 0 -79 -85 76 -71 -44 0 -68 63 0 -63 -34 0 0 156zm190 -111c15,-12 28,-17 45,-17 25,0 34,13 33,35 -7,-2 -21,-4 -32,-4 -41,0 -73,15 -73,50 0,30 23,49 57,49 23,0 39,-9 48,-19l0 17 35 0 0 -95c0,-41 -23,-64 -64,-64 -26,0 -51,8 -66,23l17 25zm38 83c-18,0 -29,-7 -29,-20 0,-15 16,-20 41,-20 11,0 22,2 28,4l0 15c-6,10 -20,21 -40,21zm229 28l34 0 0 -156 -34 0 0 61 -75 0 0 -61 -34 0 0 156 34 0 0 -63 75 0 0 63zm81 0l130 0 0 36 32 0 0 -68 -21 0 0 -124 -35 0 0 124 -72 0 0 -124 -34 0 0 156zm197 0l34 0 0 -156 -34 0 0 156zm-3 -201c0,11 8,19 20,19 11,0 20,-8 20,-19 0,-10 -9,-18 -20,-18 -12,0 -20,8 -20,18zm223 124l0 -1 -55 -64 -23 21 38 44 -39 44 24 22 55 -66zm-63 0l0 -1 -56 -64 -23 21 38 44 -38 44 24 22 55 -66zm261 118c-34,-32 -55,-76 -55,-120 0,-38 14,-82 54,-119l-22 -20c-51,45 -67,97 -67,139 0,43 16,96 67,140l23 -20zm131 -36l36 0 0 -25 1 0c62,0 104,-35 104,-88 0,-59 -50,-87 -105,-87l0 -19 -36 0 0 19c-61,0 -106,30 -106,87 0,53 42,88 105,88l1 0 0 25zm36 -167c45,0 67,20 67,54 0,36 -27,54 -66,54l-1 0c0,0 0,-27 0,-108l0 0zm-104 54c0,-37 29,-54 68,-54l0 108 -1 0c-44,0 -67,-24 -67,-54zm247 168l35 0 0 -70c7,8 23,13 40,13 47,0 78,-36 78,-84 0,-46 -28,-78 -75,-78 -16,0 -33,5 -43,17l0 -14 -35 0 0 216zm74 -188c27,0 44,19 44,50 0,29 -19,49 -46,49 -16,0 -30,-7 -37,-19l0 -54c6,-14 19,-26 39,-26zm135 17c15,-12 28,-17 45,-17 25,0 34,13 34,35 -8,-2 -21,-4 -33,-4 -41,0 -72,15 -72,50 0,30 22,49 56,49 23,0 39,-9 49,-19l0 17 34 0 0 -95c0,-41 -23,-64 -64,-64 -26,0 -51,8 -66,23l17 25zm38 83c-18,0 -29,-7 -29,-20 0,-15 16,-20 41,-20 11,0 22,2 29,4l0 15c-7,10 -21,21 -41,21zm229 28l34 0 0 -156 -34 0 0 61 -75 0 0 -61 -34 0 0 156 34 0 0 -63 75 0 0 63zm81 0l130 0 0 36 32 0 0 -68 -21 0 0 -124 -35 0 0 124 -72 0 0 -124 -34 0 0 156zm197 0l34 0 0 -156 -34 0 0 156zm-3 -201c0,11 8,19 20,19 11,0 20,-8 20,-19 0,-10 -9,-18 -20,-18 -12,0 -20,8 -20,18zm152 45c-51,0 -70,24 -70,52 0,24 14,42 36,47l-45 57 40 0 40 -51 29 0 0 51 34 0 0 -156 -64 0zm-34 53c0,-13 8,-21 31,-21l33 0 0 41 -34 0c-20,0 -30,-8 -30,-20zm155 163c49,-43 66,-97 66,-139 0,-42 -17,-94 -67,-139l-23 20c40,37 55,81 55,119 0,38 -17,86 -55,119l24 20z"/>
  <path class="fil6" d="M14066 723l23 -22 -38 -44 38 -44 -23 -21 -55 64 0 1 55 66zm63 0l24 -22 -38 -44 38 -44 -24 -21 -55 64 0 1 55 66zm72 11l87 0c49,0 82,-17 82,-61 0,-27 -12,-43 -32,-49 15,-9 25,-25 25,-47 0,-31 -17,-53 -73,-53l-89 0 0 210zm87 -90c32,0 44,8 44,27 0,20 -13,29 -46,29l-49 0 0 -56 51 0zm-3 -86c31,0 41,9 41,27 0,16 -14,26 -37,26l-52 0 0 -53 48 0zm235 176l34 0 0 -156 -141 0 0 156 34 0 0 -124 73 0 0 124zm199 -50c-9,13 -24,21 -41,21 -26,0 -46,-12 -49,-37l116 0c1,-9 2,-17 2,-22 0,-43 -31,-71 -73,-71 -53,0 -80,35 -80,81 0,49 33,81 83,81 26,0 48,-11 63,-32l-21 -21zm-47 -78c22,0 37,11 39,32l-81 0c4,-20 19,-32 42,-32zm114 188l34 0 0 -70c7,8 23,13 41,13 47,0 78,-36 78,-83 0,-47 -29,-79 -76,-79 -15,0 -33,5 -43,17l0 -14 -34 0 0 216zm74 -188c27,0 43,19 43,50 0,29 -18,49 -46,49 -15,0 -29,-6 -37,-19l0 -54c6,-14 20,-26 40,-26zm237 78c-10,13 -25,21 -42,21 -26,0 -46,-12 -49,-37l116 0c1,-9 2,-17 2,-22 0,-43 -31,-71 -73,-71 -52,0 -80,35 -80,81 0,49 33,81 83,81 26,0 48,-11 64,-32l-21 -21zm-48 -78c22,0 37,11 39,32l-81 0c4,-20 19,-32 42,-32zm96 164l31 0 0 -36 114 0 0 36 32 0 0 -68 -22 0 0 -124 -120 0 0 27c0,41 -3,73 -17,97l-18 0 0 68zm68 -160l53 0 0 92 -68 0c9,-18 15,-50 15,-79l0 -13zm160 124c-1,10 -17,21 -27,23l8 20c21,-5 46,-25 46,-54 0,-15 -6,-33 -25,-33 -16,0 -24,12 -24,24 0,8 7,22 22,20zm132 0l36 0 0 -210 -36 0 0 210zm73 -124l56 0 0 124 34 0 0 -124 57 0 0 -32 -147 0 0 32zm195 13c15,-11 27,-17 44,-17 26,0 34,13 34,36 -7,-3 -21,-5 -32,-5 -42,0 -73,15 -73,50 0,30 22,49 57,49 23,0 39,-9 48,-19l0 17 34 0 0 -95c0,-41 -23,-64 -64,-64 -25,0 -50,8 -65,23l17 25zm37 83c-17,0 -29,-7 -29,-19 0,-16 17,-21 41,-21 12,0 23,2 29,4l0 15c-7,11 -20,21 -41,21zm228 28l35 0 0 -156 -123 0 0 45c0,72 -19,82 -35,81l3 31c38,4 65,-18 65,-101l0 -24 55 0 0 124zm84 0l34 0 0 -156 -34 0 0 156zm-3 -201c0,11 8,19 20,19 11,0 20,-8 20,-19 0,-10 -9,-18 -20,-18 -11,0 -20,8 -20,18zm181 107l-66 0c6,-23 24,-34 48,-34 16,0 29,5 39,18l26 -18c-14,-22 -39,-31 -65,-31 -50,0 -84,31 -84,81 0,47 33,81 81,81 28,0 55,-11 68,-37l-25 -14c-9,12 -22,19 -40,19 -24,0 -44,-10 -49,-36l67 0 0 -29zm219 17l0 -1 -55 -64 -23 21 38 44 -39 44 24 22 55 -66zm-63 0l0 -1 -56 -64 -23 21 38 44 -38 44 24 22 55 -66zm261 118c-34,-32 -55,-76 -55,-120 0,-38 14,-82 54,-119l-23 -20c-50,45 -66,97 -66,139 0,43 16,97 66,140l24 -20zm38 -41l36 0 0 -210 -36 0 0 210zm73 -124l56 0 0 124 34 0 0 -124 57 0 0 -32 -147 0 0 32zm195 13c15,-11 27,-17 44,-17 26,0 34,13 34,36 -7,-3 -21,-5 -32,-5 -42,0 -73,15 -73,50 0,30 22,49 57,49 23,0 39,-9 48,-19l0 17 34 0 0 -95c0,-41 -23,-64 -64,-64 -25,0 -50,8 -65,23l17 25zm37 83c-17,0 -29,-7 -29,-19 0,-16 17,-21 41,-21 12,0 23,2 29,4l0 15c-7,11 -20,21 -41,21zm228 28l35 0 0 -156 -123 0 0 45c0,72 -19,82 -35,81l3 31c38,4 65,-18 65,-101l0 -24 55 0 0 124zm84 0l34 0 0 -156 -34 0 0 156zm-3 -201c0,11 8,19 20,19 11,0 20,-8 20,-19 0,-10 -9,-18 -20,-18 -11,0 -20,8 -20,18zm152 45c-51,0 -70,24 -70,52 0,24 14,42 36,47l-45 57 40 0 40 -51 29 0 0 51 34 0 0 -156 -64 0zm-34 53c0,-13 9,-21 31,-21l33 0 0 41 -34 0c-20,0 -30,-8 -30,-20zm155 163c49,-43 66,-97 66,-139 0,-42 -17,-94 -67,-139l-22 20c39,37 54,81 54,119 0,39 -17,86 -55,119l24 20z"/>
  <path class="fil6" d="M15301 1129l-44 0 -53 74 -54 -74 -43 0 75 104 -79 106 44 0 56 -77 57 77 44 0 -79 -106 76 -104zm15 247l35 0 0 -37 150 0 0 37 35 0 0 -71 -25 0 0 -176 -149 0 0 31c0,93 -9,125 -23,145l-23 0 0 71zm81 -213l77 0 0 142 -97 0c13,-24 20,-63 20,-129l0 -13zm337 116c-15,17 -35,28 -61,28 -43,0 -73,-29 -73,-73 0,-43 28,-72 71,-72 23,0 42,8 57,24l24 -23c-15,-21 -45,-36 -83,-36 -65,0 -107,47 -107,107 0,65 42,108 108,108 36,0 68,-15 85,-39l-21 -24zm210 101c-33,-32 -54,-75 -54,-120 0,-38 14,-81 54,-119l-23 -20c-50,45 -66,97 -66,139 0,43 16,97 66,140l23 -20zm185 -41l37 0 0 -210 -37 0 0 87 -110 0 0 -87 -36 0 0 210 36 0 0 -89 110 0 0 89zm91 0l34 0 0 -156 -34 0 0 156zm-3 -201c0,11 8,19 20,19 11,0 20,-8 20,-19 0,-10 -9,-18 -20,-18 -11,0 -20,8 -20,18zm86 201l34 0 0 -97 52 63 48 -63 0 97 34 0 0 -156 -28 0 -55 71 -54 -71 -31 0 0 156zm333 -49c-9,12 -25,20 -41,20 -26,0 -46,-12 -49,-37l116 0c1,-9 2,-17 2,-22 0,-43 -32,-71 -74,-71 -52,0 -80,35 -80,81 0,49 34,81 84,81 26,0 47,-10 63,-32l-21 -20zm-47 -79c22,0 37,11 39,32l-82 0c5,-20 20,-32 43,-32zm246 -28l-35 0 0 61c-6,9 -20,17 -34,17 -25,0 -36,-11 -36,-42l0 -36 -34 0 0 47c0,43 22,63 62,63 17,0 33,-6 42,-15l0 61 35 0 0 -156zm178 0l-34 0 0 61c-7,9 -21,17 -35,17 -25,0 -36,-11 -36,-42l0 -36 -34 0 0 47c0,43 22,63 63,63 16,0 32,-6 42,-15l0 61 34 0 0 -156zm76 156l83 -101 0 101 34 0 0 -156 -30 0 -83 102 0 -102 -34 0 0 156 30 0zm272 0l35 0 0 -156 -35 0 0 62 -75 0 0 -62 -34 0 0 156 34 0 0 -63 75 0 0 63zm98 -111c15,-11 28,-16 45,-16 25,0 34,12 33,35 -7,-3 -21,-5 -32,-5 -41,0 -73,15 -73,50 0,30 23,49 57,49 23,0 39,-9 48,-19l0 17 34 0 0 -95c0,-41 -22,-64 -63,-64 -26,0 -51,8 -66,23l17 25zm37 83c-17,0 -28,-7 -28,-19 0,-16 16,-21 41,-21 11,0 22,2 28,4l0 15c-7,11 -20,21 -41,21zm131 88c50,-43 66,-96 66,-139 0,-42 -16,-94 -66,-139l-23 20c40,38 55,81 55,119 0,39 -18,87 -55,119l23 20z"/>
  <path class="fil6" d="M15795 1899l36 0 0 -74 19 -18 81 92 48 0 -102 -116 95 -94 -47 0 -94 92 0 -92 -36 0 0 210zm192 -79c0,47 35,81 84,81 49,0 83,-34 83,-81 0,-47 -34,-81 -83,-81 -50,0 -84,34 -84,81zm36 0c0,-30 20,-49 48,-49 27,0 48,19 48,49 0,30 -20,49 -48,49 -29,0 -48,-21 -48,-49zm279 79l35 0 0 -156 -35 0 0 61 -75 0 0 -61 -34 0 0 156 34 0 0 -64 75 0 0 64zm201 -52c-9,13 -22,22 -40,22 -31,0 -52,-21 -52,-49 0,-29 20,-49 49,-49 17,0 29,6 40,20l25 -17c-10,-20 -35,-35 -67,-35 -49,0 -82,35 -82,81 0,49 34,81 84,81 27,0 54,-13 67,-38l-24 -16zm166 2c-9,12 -25,20 -41,20 -26,0 -46,-12 -49,-37l116 0c1,-9 2,-17 2,-22 0,-43 -32,-71 -74,-71 -52,0 -80,36 -80,81 0,49 34,81 84,81 26,0 47,-10 63,-32l-21 -20zm-47 -79c22,0 37,11 39,33l-82 0c5,-21 20,-33 43,-33zm114 188l34 0 0 -70c7,9 23,13 41,13 46,0 78,-35 78,-83 0,-46 -29,-79 -76,-79 -16,0 -33,5 -43,18l0 -14 -34 0 0 215zm73 -187c27,0 44,18 44,50 0,29 -18,48 -46,48 -16,0 -30,-6 -37,-19l0 -54c6,-13 20,-25 39,-25zm119 128l73 0c40,0 63,-16 63,-47 0,-17 -7,-31 -21,-36 10,-8 17,-18 17,-32 0,-30 -23,-41 -66,-41l-66 0 0 156zm71 -65c20,0 30,5 30,17 0,12 -10,17 -31,17l-36 0 0 -34 37 0zm-6 -61c20,0 32,3 32,15 0,11 -9,16 -23,16l-40 0 0 -31 31 0zm127 14c15,-11 27,-16 44,-16 26,0 34,12 34,35 -7,-3 -21,-4 -32,-4 -41,0 -73,14 -73,49 0,30 23,49 57,49 23,0 39,-8 48,-19l0 18 34 0 0 -96c0,-41 -23,-64 -64,-64 -25,0 -50,9 -65,23l17 25zm37 84c-17,0 -29,-8 -29,-20 0,-16 17,-21 41,-21 12,0 23,2 29,4l0 15c-7,11 -20,22 -41,22zm106 -97l56 0 0 125 34 0 0 -125 56 0 0 -31 -146 0 0 31zm207 125l83 -102 0 102 34 0 0 -156 -29 0 -83 101 0 -101 -34 0 0 156 29 0zm164 0l74 0c39,0 63,-16 63,-47 0,-17 -7,-31 -22,-36 10,-8 17,-18 17,-32 0,-30 -22,-41 -65,-41l-67 0 0 156zm71 -65c21,0 30,5 30,17 0,12 -10,17 -31,17l-36 0 0 -34 37 0zm-5 -61c19,0 31,3 31,15 0,11 -9,16 -23,16l-40 0 0 -31 32 0zm218 126l35 0 0 -156 -35 0 0 61 -75 0 0 -61 -34 0 0 156 34 0 0 -64 75 0 0 64zm98 -112c15,-11 27,-16 45,-16 25,0 33,12 33,35 -7,-3 -21,-4 -32,-4 -41,0 -73,14 -73,49 0,30 23,49 57,49 23,0 39,-8 48,-19l0 18 34 0 0 -96c0,-41 -22,-64 -64,-64 -25,0 -50,9 -65,23l17 25zm37 84c-17,0 -28,-8 -28,-20 0,-16 16,-21 41,-21 11,0 22,2 28,4l0 15c-7,11 -20,22 -41,22zm299 28l34 0 0 -156 -142 0 0 156 35 0 0 -125 73 0 0 125zm97 -112c15,-11 28,-16 45,-16 25,0 34,12 34,35 -8,-3 -21,-4 -32,-4 -42,0 -73,14 -73,49 0,30 22,49 56,49 23,0 39,-8 49,-19l0 18 34 0 0 -96c0,-41 -23,-64 -64,-64 -26,0 -51,9 -65,23l16 25zm38 84c-18,0 -29,-8 -29,-20 0,-16 17,-21 41,-21 11,0 22,2 29,4l0 15c-7,11 -20,22 -41,22zm120 87l34 0 0 -70c7,9 24,13 41,13 47,0 78,-35 78,-83 0,-46 -29,-79 -75,-79 -16,0 -34,5 -44,18l0 -14 -34 0 0 215zm74 -187c27,0 44,18 44,50 0,29 -19,48 -47,48 -15,0 -29,-6 -37,-19l0 -54c7,-13 20,-25 40,-25zm97 3l56 0 0 125 34 0 0 -125 57 0 0 -31 -147 0 0 31zm181 125l34 0 0 -156 -34 0 0 156zm-3 -201c0,11 8,18 20,18 11,0 20,-7 20,-18 0,-11 -9,-18 -20,-18 -11,0 -20,7 -20,18zm152 45c-51,0 -69,24 -69,51 0,24 13,42 35,48l-45 57 40 0 40 -52 29 0 0 52 34 0 0 -156 -64 0zm-34 52c0,-12 9,-21 31,-21l33 0 0 41 -34 0c-19,0 -30,-8 -30,-20zm299 144c-34,-32 -55,-75 -55,-119 0,-39 14,-82 55,-120l-23 -20c-50,46 -67,98 -67,140 0,42 17,96 67,139l23 -20zm38 -40l37 0 0 -74 18 -18 82 92 48 0 -102 -116 95 -94 -47 0 -94 92 0 -92 -37 0 0 210zm230 -112c15,-11 28,-16 45,-16 25,0 34,12 34,35 -8,-3 -21,-4 -32,-4 -42,0 -73,14 -73,49 0,30 22,49 56,49 23,0 39,-8 49,-19l0 18 34 0 0 -96c0,-41 -23,-64 -64,-64 -26,0 -51,9 -65,23l16 25zm38 84c-18,0 -29,-8 -29,-20 0,-16 17,-21 41,-21 11,0 22,2 29,4l0 15c-7,11 -20,22 -41,22zm229 28l35 0 0 -156 -35 0 0 61 -75 0 0 -61 -34 0 0 156 34 0 0 -64 75 0 0 64zm98 -112c15,-11 28,-16 45,-16 25,0 33,12 33,35 -7,-3 -21,-4 -32,-4 -41,0 -73,14 -73,49 0,30 23,49 57,49 23,0 39,-8 48,-19l0 18 34 0 0 -96c0,-41 -22,-64 -63,-64 -26,0 -51,9 -66,23l17 25zm37 84c-17,0 -28,-8 -28,-20 0,-16 16,-21 41,-21 11,0 22,2 28,4l0 15c-7,11 -20,22 -41,22zm106 63l32 0 0 -35 113 0 0 35 32 0 0 -67 -22 0 0 -124 -119 0 0 27c0,40 -4,72 -18,97l-18 0 0 67zm68 -160l53 0 0 93 -67 0c9,-19 14,-51 14,-80l0 -13zm158 13c15,-11 27,-16 44,-16 26,0 34,12 34,35 -7,-3 -21,-4 -32,-4 -42,0 -73,14 -73,49 0,30 22,49 57,49 23,0 39,-8 48,-19l0 18 34 0 0 -96c0,-41 -23,-64 -64,-64 -25,0 -50,9 -65,23l17 25zm37 84c-17,0 -29,-8 -29,-20 0,-16 17,-21 41,-21 12,0 23,2 29,4l0 15c-7,11 -20,22 -41,22zm131 87c49,-42 66,-96 66,-138 0,-42 -17,-95 -66,-140l-23 20c40,38 54,81 54,120 0,38 -17,86 -54,118l23 20z"/>
  <path class="fil6" d="M16248 2430l37 0 0 -73 19 -18 81 91 48 0 -102 -116 95 -94 -47 0 -94 92 0 -92 -37 0 0 210zm193 -78c0,47 35,81 83,81 50,0 84,-34 84,-81 0,-47 -34,-82 -84,-82 -49,0 -83,35 -83,82zm35 0c0,-31 21,-50 48,-50 27,0 49,19 49,50 0,30 -20,49 -49,49 -28,0 -48,-21 -48,-49zm280 78l34 0 0 -156 -34 0 0 61 -75 0 0 -61 -34 0 0 156 34 0 0 -63 75 0 0 63zm200 -51c-8,13 -21,22 -39,22 -31,0 -52,-21 -52,-49 0,-30 20,-50 48,-50 18,0 30,7 40,21l26 -17c-10,-21 -35,-36 -67,-36 -49,0 -82,36 -82,82 0,49 34,81 84,81 27,0 54,-13 67,-39l-25 -15zm167 1c-9,13 -25,21 -42,21 -25,0 -45,-13 -48,-37l116 0c1,-10 1,-17 1,-22 0,-43 -31,-72 -73,-72 -52,0 -80,36 -80,82 0,49 34,81 84,81 25,0 47,-11 63,-32l-21 -21zm-47 -79c22,0 36,11 39,33l-82 0c5,-20 20,-33 43,-33zm114 189l34 0 0 -70c7,8 23,13 40,13 47,0 78,-36 78,-84 0,-46 -28,-79 -75,-79 -16,0 -33,6 -43,18l0 -14 -34 0 0 216zm73 -188c27,0 44,19 44,50 0,29 -19,49 -46,49 -16,0 -30,-7 -37,-19l0 -54c6,-14 20,-26 39,-26zm119 128l73 0c40,0 63,-16 63,-46 0,-17 -7,-31 -22,-37 11,-8 18,-17 18,-32 0,-30 -23,-41 -66,-41l-66 0 0 156zm71 -64c20,0 30,4 30,17 0,11 -11,16 -31,16l-36 0 0 -33 37 0zm-6 -61c20,0 31,2 31,15 0,11 -8,16 -22,16l-40 0 0 -31 31 0zm127 14c15,-12 27,-17 44,-17 25,0 34,13 34,35 -7,-2 -21,-4 -32,-4 -42,0 -73,15 -73,50 0,30 22,49 57,49 23,0 39,-9 48,-19l0 17 34 0 0 -95c0,-41 -23,-65 -64,-65 -25,0 -51,9 -65,24l17 25zm37 83c-17,0 -29,-7 -29,-20 0,-15 17,-20 41,-20 11,0 23,2 29,4l0 15c-7,10 -20,21 -41,21zm105 -96l57 0 0 124 34 0 0 -124 56 0 0 -32 -147 0 0 32zm208 124l83 -101 0 101 34 0 0 -156 -29 0 -83 102 0 -102 -34 0 0 156 29 0zm164 0l74 0c39,0 63,-16 63,-46 0,-17 -8,-31 -22,-37 10,-8 17,-17 17,-32 0,-30 -22,-41 -66,-41l-66 0 0 156zm71 -64c21,0 30,4 30,17 0,11 -10,16 -31,16l-36 0 0 -33 37 0zm-6 -61c20,0 32,2 32,15 0,11 -9,16 -23,16l-40 0 0 -31 31 0zm219 125l34 0 0 -156 -34 0 0 61 -75 0 0 -61 -34 0 0 156 34 0 0 -63 75 0 0 63zm98 -111c15,-12 27,-17 44,-17 26,0 34,13 34,35 -7,-2 -21,-4 -32,-4 -41,0 -73,15 -73,50 0,30 23,49 57,49 23,0 39,-9 48,-19l0 17 34 0 0 -95c0,-41 -23,-65 -64,-65 -25,0 -50,9 -65,24l17 25zm37 83c-17,0 -29,-7 -29,-20 0,-15 17,-20 41,-20 12,0 23,2 29,4l0 15c-7,10 -20,21 -41,21zm299 28l34 0 0 -156 -142 0 0 156 34 0 0 -124 74 0 0 124zm97 -111c15,-12 28,-17 45,-17 25,0 34,13 33,35 -7,-2 -21,-4 -32,-4 -41,0 -72,15 -72,50 0,30 22,49 56,49 23,0 39,-9 48,-19l0 17 35 0 0 -95c0,-41 -23,-65 -64,-65 -26,0 -51,9 -66,24l17 25zm38 83c-18,0 -29,-7 -29,-20 0,-15 16,-20 41,-20 11,0 22,2 28,4l0 15c-6,10 -20,21 -40,21zm120 88l34 0 0 -70c7,8 24,13 41,13 47,0 78,-36 78,-84 0,-46 -29,-79 -76,-79 -15,0 -33,6 -43,18l0 -14 -34 0 0 216zm74 -188c27,0 44,19 44,50 0,29 -19,49 -47,49 -15,0 -29,-7 -37,-19l0 -54c7,-14 20,-26 40,-26zm97 4l56 0 0 124 34 0 0 -124 57 0 0 -32 -147 0 0 32zm181 124l34 0 0 -156 -34 0 0 156zm-3 -201c0,11 8,19 20,19 11,0 20,-8 20,-19 0,-10 -9,-18 -20,-18 -11,0 -20,8 -20,18zm152 45c-51,0 -69,24 -69,52 0,24 13,42 35,47l-45 57 40 0 40 -51 29 0 0 51 34 0 0 -156 -64 0zm-34 53c0,-13 9,-21 31,-21l33 0 0 41 -34 0c-20,0 -30,-8 -30,-20zm299 143c-34,-32 -55,-75 -55,-119 0,-38 14,-82 54,-119l-22 -20c-50,45 -67,97 -67,139 0,42 17,96 67,140l23 -21zm192 -250l-154 0 0 210 84 0c53,0 85,-20 85,-66 0,-39 -25,-62 -75,-62l-58 0 0 -48 118 0 0 -34zm-67 116c31,0 44,9 44,29 0,22 -15,31 -46,31l-49 0 0 -60 51 0zm121 154l34 0 0 -70c7,8 24,13 41,13 47,0 78,-36 78,-84 0,-46 -29,-79 -76,-79 -15,0 -33,6 -43,18l0 -14 -34 0 0 216zm74 -188c27,0 44,19 44,50 0,29 -19,49 -47,49 -15,0 -29,-7 -37,-19l0 -54c7,-14 20,-26 40,-26zm148 128l83 -101 0 101 34 0 0 -156 -30 0 -83 102 0 -102 -34 0 0 156 30 0zm148 -124l57 0 0 124 34 0 0 -124 56 0 0 -32 -147 0 0 32zm195 13c15,-12 28,-17 45,-17 25,0 34,13 34,35 -8,-2 -21,-4 -33,-4 -41,0 -72,15 -72,50 0,30 22,49 56,49 23,0 39,-9 49,-19l0 17 34 0 0 -95c0,-41 -23,-65 -64,-65 -26,0 -51,9 -66,24l17 25zm38 83c-18,0 -29,-7 -29,-20 0,-15 16,-20 41,-20 11,0 22,2 29,4l0 15c-7,10 -21,21 -41,21zm229 28l34 0 0 -156 -34 0 0 61 -75 0 0 -61 -34 0 0 156 34 0 0 -63 75 0 0 63zm84 0l34 0 0 -156 -34 0 0 156zm-3 -201c0,11 8,19 20,19 11,0 20,-8 20,-19 0,-10 -9,-18 -20,-18 -11,0 -20,8 -20,18zm152 45c-51,0 -69,24 -69,52 0,24 13,42 35,47l-45 57 40 0 40 -51 29 0 0 51 34 0 0 -156 -64 0zm-34 53c0,-13 9,-21 31,-21l33 0 0 41 -34 0c-20,0 -30,-8 -30,-20zm155 163c49,-43 66,-97 66,-139 0,-42 -17,-94 -67,-139l-22 20c40,37 54,81 54,119 0,38 -17,86 -55,119l24 20z"/>
  <path class="fil6" d="M16628 2979l0 -72 48 0c66,0 88,-35 88,-69 0,-33 -16,-69 -87,-69l-85 0 0 210 36 0zm50 -176c36,0 48,15 48,35 0,21 -15,35 -50,35l-48 0 0 -70 50 0zm230 126c-10,13 -25,21 -42,21 -26,0 -46,-13 -49,-37l116 0c1,-10 2,-17 2,-22 0,-43 -31,-72 -73,-72 -52,0 -80,36 -80,82 0,49 33,81 83,81 26,0 48,-11 64,-32l-21 -21zm-48 -79c22,0 37,11 40,33l-82 0c4,-20 19,-33 42,-33zm230 78c-8,13 -21,22 -39,22 -31,0 -52,-21 -52,-49 0,-30 20,-50 49,-50 17,0 29,6 39,21l26 -17c-10,-21 -35,-36 -67,-36 -49,0 -82,35 -82,82 0,49 34,81 84,81 27,0 54,-14 67,-39l-25 -15zm164 51l34 0 0 -156 -141 0 0 156 34 0 0 -124 73 0 0 124zm88 58c6,3 13,5 21,5 25,0 41,-16 62,-68l61 -151 -36 0 -41 105 -54 -105 -40 0 77 147 -5 14c-8,19 -16,26 -25,26 -3,0 -5,-1 -7,-2l-13 29zm308 -281c-29,9 -64,2 -92,16 -41,20 -50,60 -50,116 0,61 33,94 83,94 48,0 79,-34 79,-80 0,-47 -31,-72 -72,-72 -24,0 -45,7 -57,24 2,-24 10,-43 30,-52 23,-11 59,-4 85,-15l-6 -31zm-107 138c7,-17 23,-32 49,-32 28,0 43,17 43,42 0,27 -16,46 -44,46 -29,0 -48,-23 -48,-53l0 -3zm267 85l34 0 0 -156 -123 0 0 44c0,73 -18,83 -34,81l2 32c39,3 66,-18 66,-101l0 -24 55 0 0 124zm84 0l34 0 0 -156 -34 0 0 156zm-3 -201c0,11 8,19 20,19 11,0 20,-8 20,-19 0,-10 -9,-18 -20,-18 -12,0 -20,8 -20,18zm86 201l34 0 0 -53 11 -11 60 64 44 0 -79 -86 76 -70 -45 0 -67 63 0 -63 -34 0 0 156zm190 -111c15,-12 28,-17 45,-17 25,0 34,13 33,35 -7,-2 -21,-4 -32,-4 -41,0 -73,15 -73,49 0,30 23,50 57,50 23,0 39,-9 48,-19l0 17 34 0 0 -95c0,-41 -22,-65 -63,-65 -26,0 -51,9 -66,23l17 26zm38 83c-18,0 -29,-8 -29,-20 0,-15 16,-20 41,-20 11,0 22,2 28,4l0 15c-7,10 -20,21 -40,21zm229 28l34 0 0 -156 -34 0 0 61 -75 0 0 -61 -34 0 0 156 34 0 0 -63 75 0 0 63zm200 -51c-9,13 -21,22 -39,22 -32,0 -52,-21 -52,-49 0,-30 20,-50 48,-50 18,0 30,6 40,21l26 -17c-11,-21 -35,-36 -67,-36 -49,0 -82,35 -82,82 0,49 33,81 84,81 27,0 54,-14 66,-39l-24 -15zm57 51l65 0c50,0 68,-27 68,-56 0,-29 -16,-55 -66,-55l-33 0 0 -45 -34 0 0 156zm64 -79c24,0 33,8 33,23 0,16 -9,24 -34,24l-29 0 0 -47 30 0zm105 79l34 0 0 -53 12 -11 59 64 44 0 -78 -86 75 -70 -44 0 -68 63 0 -63 -34 0 0 156zm190 -111c15,-12 28,-17 45,-17 25,0 34,13 34,35 -8,-2 -21,-4 -33,-4 -41,0 -72,15 -72,49 0,30 22,50 56,50 23,0 39,-9 49,-19l0 17 34 0 0 -95c0,-41 -23,-65 -64,-65 -26,0 -51,9 -65,23l16 26zm38 83c-18,0 -29,-8 -29,-20 0,-15 17,-20 41,-20 11,0 22,2 29,4l0 15c-7,10 -21,21 -41,21zm298 28l34 0 0 -156 -141 0 0 156 34 0 0 -124 73 0 0 124zm98 -111c15,-12 27,-17 44,-17 26,0 34,13 34,35 -7,-2 -21,-4 -32,-4 -41,0 -73,15 -73,49 0,30 23,50 57,50 23,0 39,-9 48,-19l0 17 34 0 0 -95c0,-41 -23,-65 -64,-65 -25,0 -50,9 -65,23l17 26zm37 83c-17,0 -28,-8 -28,-20 0,-15 16,-20 41,-20 11,0 22,2 28,4l0 15c-7,10 -20,21 -41,21zm121 88l34 0 0 -70c7,8 23,13 41,13 46,0 78,-36 78,-84 0,-46 -29,-79 -76,-79 -16,0 -33,6 -43,18l0 -14 -34 0 0 216zm73 -188c27,0 44,18 44,50 0,29 -18,49 -46,49 -16,0 -30,-7 -37,-19l0 -54c6,-14 20,-26 39,-26zm97 4l57 0 0 124 34 0 0 -124 56 0 0 -32 -147 0 0 32zm182 124l34 0 0 -156 -34 0 0 156zm-3 -201c0,11 8,19 20,19 11,0 19,-8 19,-19 0,-10 -8,-18 -19,-18 -12,0 -20,8 -20,18zm151 45c-51,0 -69,24 -69,52 0,24 14,42 36,47l-45 57 40 0 39 -51 29 0 0 51 35 0 0 -156 -65 0zm-33 53c0,-13 8,-21 30,-21l33 0 0 41 -33 0c-20,0 -30,-9 -30,-20zm298 143c-33,-32 -55,-75 -55,-119 0,-38 15,-82 55,-119l-23 -20c-50,45 -66,97 -66,139 0,42 16,96 66,139l23 -20zm199 -100c-14,17 -34,27 -61,27 -43,0 -73,-28 -73,-72 0,-44 29,-73 72,-73 23,0 42,9 56,25l24 -23c-14,-21 -44,-36 -82,-36 -65,0 -107,47 -107,107 0,65 42,107 108,107 35,0 67,-14 85,-39l-22 -23zm62 60l235 0 0 -210 -36 0 0 176 -63 0 0 -176 -37 0 0 176 -63 0 0 -176 -36 0 0 210zm270 0l38 0 20 -47 96 0 20 47 38 0 -92 -210 -28 0 -92 210zm106 -158l34 80 -69 0 35 -80zm147 218c49,-43 66,-97 66,-139 0,-42 -17,-94 -67,-139l-22 20c39,37 54,81 54,119 0,38 -17,86 -55,119l24 20z"/>
  <path class="fil1" d="M2040 3778l0 -77 -346 0 0 259 39 1c220,3 242,18 236,71l71 0c1,-7 1,-14 1,-20 0,-70 -19,-114 -233,-124l-40 -2 0 -108 272 0zm0 -144l0 -76 -346 0 0 76 346 0zm0 -143l0 -151c0,-78 -30,-134 -103,-134 -43,0 -67,16 -80,45 -17,-20 -40,-34 -75,-34 -51,0 -88,29 -88,119l0 155 346 0zm-142 -147c0,-43 10,-58 35,-58 25,0 35,16 35,62l0 67 -70 0 0 -71zm-132 5c0,-42 11,-53 34,-53 18,0 29,16 29,47l0 72 -63 0 0 -66zm101 -176c103,0 179,-79 179,-178 0,-99 -77,-178 -179,-178 -103,0 -179,79 -179,178 0,100 79,178 179,178zm0 -79c-64,0 -105,-46 -105,-99 0,-50 41,-98 105,-98 64,0 105,44 105,98 0,53 -41,99 -105,99zm173 -324l0 -261 58 0 0 -71 -130 0 0 40 -274 0 0 76 274 0 0 140 -274 0 0 76 346 0zm0 -369l0 -269 -72 0 0 192 -69 0 0 -175 -69 0 0 175 -64 0 0 -188 -72 0 0 265 346 0zm0 -551l0 -77 -346 0 0 77 136 0 0 153 -136 0 0 77 346 0 0 -77 -139 0 0 -153 139 0zm-274 -109l0 -110 274 0 0 -77 -274 0 0 -111 -72 0 0 298 72 0zm274 -407l-109 0 0 -66c0,-110 -60,-147 -118,-147 -57,0 -119,29 -119,147l0 143 346 0 0 -77zm-274 -68c0,-49 19,-66 47,-66 29,0 47,21 47,69l0 65 -94 0 0 -68zm274 -252l-211 -169 211 0 0 -76 -346 0 0 63 212 168 -212 0 0 76 346 0 0 -62zm6 -444c0,-84 -43,-142 -114,-142 -28,0 -61,6 -77,47 -16,-26 -37,-36 -66,-36 -63,0 -101,47 -101,134 0,75 27,120 70,151l40 -59c-26,-23 -38,-48 -38,-88 0,-26 7,-61 36,-61 19,0 32,23 32,64l0 51 72 0 0 -54c0,-47 10,-72 37,-72 21,0 37,16 37,67 0,48 -15,80 -47,104l41 61c56,-38 78,-96 78,-167zm-6 -189l0 -77 -209 0 139 -92 0 -21 -138 -89 208 0 0 -77 -346 0 0 69 166 105 -166 111 0 71 346 0z"/>
 </g>
</svg>
